<!DOCTYPE svg PUBLIC "-//W3C//DTD SVG 20010904//EN" "http://www.w3.org/TR/2001/REC-SVG-20010904/DTD/svg10.dtd">
<svg version="1.0" xmlns="http://www.w3.org/2000/svg" width="178px" height="73px" viewBox="0 0 1780 730" preserveAspectRatio="xMidYMid meet">
<g id="layer101" fill="#ac2e10" stroke="none">
 <path d="M0 365 l0 -365 890 0 890 0 0 365 0 365 -890 0 -890 0 0 -365z"/>
 </g>
<g id="layer102" fill="#771e56" stroke="none">
 <path d="M0 365 l0 -365 890 0 890 0 0 365 0 365 -890 0 -890 0 0 -365z m1548 48 c-64 -2 -172 -2 -240 0 -68 1 -15 3 117 3 132 0 187 -2 123 -3z m9 -52 c-10 -4 -19 -11 -20 -16 -1 -9 -26 -8 -36 0 -9 10 11 20 41 22 22 1 27 -1 15 -6z m110 -7 c2 -6 -5 -14 -17 -17 -15 -4 -20 0 -20 15 0 21 30 23 37 2z m-130 -210 c-9 -9 -28 6 -21 18 4 6 10 6 17 -1 6 -6 8 -13 4 -17z m113 6 c0 -5 -7 -10 -15 -10 -8 0 -15 5 -15 10 0 6 7 10 15 10 8 0 15 -4 15 -10z"/>
 </g>
<g id="layer103" fill="#535353" stroke="none">
 <path d="M0 365 l0 -365 890 0 890 0 0 365 0 365 -890 0 -890 0 0 -365z m1548 48 c-64 -2 -172 -2 -240 0 -68 1 -15 3 117 3 132 0 187 -2 123 -3z m9 -52 c-10 -4 -19 -11 -20 -16 -1 -9 -26 -8 -36 0 -9 10 11 20 41 22 22 1 27 -1 15 -6z m110 -7 c2 -6 -5 -14 -17 -17 -15 -4 -20 0 -20 15 0 21 30 23 37 2z m-1502 -3 l-40 -6 54 -27 c30 -16 48 -28 40 -28 -16 0 -109 56 -109 65 0 3 21 4 48 4 l47 -2 -40 -6z m105 -17 c23 -9 39 -18 37 -20 -2 -2 -25 5 -53 16 -27 10 -43 19 -37 20 7 0 31 -7 53 -16z m-3 -30 c-3 -3 -12 -4 -19 -1 -8 3 -5 6 6 6 11 1 17 -2 13 -5z m1270 -160 c-9 -9 -28 6 -21 18 4 6 10 6 17 -1 6 -6 8 -13 4 -17z m113 6 c0 -5 -7 -10 -15 -10 -8 0 -15 5 -15 10 0 6 7 10 15 10 8 0 15 -4 15 -10z"/>
 </g>
<g id="layer104" fill="#922366" stroke="none">
 <path d="M0 365 l0 -365 890 0 890 0 0 365 0 365 -890 0 -890 0 0 -365z m287 218 c-4 -3 -10 -3 -14 0 -3 4 0 7 7 7 7 0 10 -3 7 -7z m296 -5 c-24 -12 -33 -62 -13 -71 6 -3 5 -4 -2 -3 -21 4 -22 58 -2 73 10 7 23 13 28 12 6 0 1 -5 -11 -11z m357 2 c-8 -5 -19 -10 -25 -10 -5 0 -3 5 5 10 8 5 20 10 25 10 6 0 3 -5 -5 -10z m337 3 c-4 -3 -10 -3 -14 0 -3 4 0 7 7 7 7 0 10 -3 7 -7z m-1026 -40 c-4 -28 -6 -32 -9 -15 -3 22 3 52 11 52 1 0 1 -17 -2 -37z m64 27 c3 -5 4 -10 1 -10 -3 0 -8 5 -11 10 -3 6 -4 10 -1 10 3 0 8 -4 11 -10z m126 -56 c5 -7 3 -11 -6 -11 -11 0 -15 11 -14 41 2 34 3 36 6 11 3 -16 9 -35 14 -41z m189 7 c-6 -12 -15 -21 -21 -21 -6 0 -3 7 5 16 9 8 17 27 17 42 2 23 2 24 6 5 2 -12 -1 -31 -7 -42z m122 -8 c7 -9 7 -13 0 -13 -13 0 -22 26 -21 58 2 26 2 26 6 -3 3 -16 9 -36 15 -42z m55 30 c-3 -10 -5 -4 -5 12 0 17 2 24 5 18 2 -7 2 -21 0 -30z m181 -42 l-2 -56 -3 55 c-3 30 -10 61 -16 70 -11 13 -10 13 6 1 13 -10 17 -26 15 -70z m114 67 c-19 -19 -14 -48 11 -58 13 -5 16 -9 7 -9 -20 -1 -40 18 -40 39 0 15 18 40 29 40 3 0 0 -5 -7 -12z m138 -7 c-13 -25 -13 -27 6 -45 8 -9 11 -16 5 -16 -19 0 -33 38 -21 60 6 11 13 20 16 20 2 0 0 -9 -6 -19z m68 -6 c-3 -3 -9 2 -12 12 -6 14 -5 15 5 6 7 -7 10 -15 7 -18z m-384 -45 c10 -13 9 -13 -6 -1 -10 7 -17 23 -17 35 1 20 2 20 6 1 3 -11 10 -27 17 -35z m-604 11 c-6 -12 -15 -21 -21 -21 -6 0 -3 7 5 16 9 8 16 20 16 26 0 6 3 9 6 6 3 -4 1 -16 -6 -27z m987 -6 c-4 -8 -11 -15 -17 -15 -6 0 -6 7 2 20 14 22 24 19 15 -5z m-507 1 c0 -3 -5 -8 -12 -12 -7 -4 -8 -3 -4 4 7 12 16 16 16 8z m625 -6 c3 -5 4 -10 1 -10 -3 0 -8 5 -11 10 -3 6 -4 10 -1 10 3 0 8 -4 11 -10z m59 2 c2 -4 -4 -8 -14 -8 -10 0 -16 4 -14 8 3 4 9 8 14 8 5 0 11 -4 14 -8z m46 4 c0 -3 -5 -8 -12 -12 -7 -4 -8 -3 -4 4 7 12 16 16 16 8z m-1283 -53 c-3 -10 -5 -4 -5 12 0 17 2 24 5 18 2 -7 2 -21 0 -30z m1301 -50 c-64 -2 -172 -2 -240 0 -68 1 -15 3 117 3 132 0 187 -2 123 -3z m9 -52 c-10 -4 -19 -11 -20 -16 -1 -9 -26 -8 -36 0 -9 10 11 20 41 22 22 1 27 -1 15 -6z m110 -7 c2 -6 -5 -14 -17 -17 -15 -4 -20 0 -20 15 0 21 30 23 37 2z m-1502 -3 l-40 -6 54 -27 c30 -16 48 -28 40 -28 -16 0 -109 56 -109 65 0 3 21 4 48 4 l47 -2 -40 -6z m105 -17 c23 -9 39 -18 37 -20 -2 -2 -25 5 -53 16 -27 10 -43 19 -37 20 7 0 31 -7 53 -16z m-3 -30 c-3 -3 -12 -4 -19 -1 -8 3 -5 6 6 6 11 1 17 -2 13 -5z m1270 -160 c-9 -9 -28 6 -21 18 4 6 10 6 17 -1 6 -6 8 -13 4 -17z m113 6 c0 -5 -7 -10 -15 -10 -8 0 -15 5 -15 10 0 6 7 10 15 10 8 0 15 -4 15 -10z"/>
 </g>
<g id="layer105" fill="#b8492a" stroke="none">
 <path d="M0 365 l0 -365 890 0 890 0 0 365 0 365 -890 0 -890 0 0 -365z m287 218 c-4 -3 -10 -3 -14 0 -3 4 0 7 7 7 7 0 10 -3 7 -7z m296 -5 c-24 -12 -33 -62 -13 -71 6 -3 5 -4 -2 -3 -21 4 -22 58 -2 73 10 7 23 13 28 12 6 0 1 -5 -11 -11z m357 2 c-8 -5 -19 -10 -25 -10 -5 0 -3 5 5 10 8 5 20 10 25 10 6 0 3 -5 -5 -10z m337 3 c-4 -3 -10 -3 -14 0 -3 4 0 7 7 7 7 0 10 -3 7 -7z m-1026 -40 c-4 -28 -6 -32 -9 -15 -3 22 3 52 11 52 1 0 1 -17 -2 -37z m64 27 c3 -5 4 -10 1 -10 -3 0 -8 5 -11 10 -3 6 -4 10 -1 10 3 0 8 -4 11 -10z m126 -56 c5 -7 3 -11 -6 -11 -11 0 -15 11 -14 41 2 34 3 36 6 11 3 -16 9 -35 14 -41z m189 7 c-6 -12 -15 -21 -21 -21 -6 0 -3 7 5 16 9 8 17 27 17 42 2 23 2 24 6 5 2 -12 -1 -31 -7 -42z m122 -8 c7 -9 7 -13 0 -13 -13 0 -22 26 -21 58 2 26 2 26 6 -3 3 -16 9 -36 15 -42z m55 30 c-3 -10 -5 -4 -5 12 0 17 2 24 5 18 2 -7 2 -21 0 -30z m181 -42 l-2 -56 -3 55 c-3 30 -10 61 -16 70 -11 13 -10 13 6 1 13 -10 17 -26 15 -70z m114 67 c-19 -19 -14 -48 11 -58 13 -5 16 -9 7 -9 -20 -1 -40 18 -40 39 0 15 18 40 29 40 3 0 0 -5 -7 -12z m138 -7 c-13 -25 -13 -27 6 -45 8 -9 11 -16 5 -16 -19 0 -33 38 -21 60 6 11 13 20 16 20 2 0 0 -9 -6 -19z m68 -6 c-3 -3 -9 2 -12 12 -6 14 -5 15 5 6 7 -7 10 -15 7 -18z m-384 -45 c10 -13 9 -13 -6 -1 -10 7 -17 23 -17 35 1 20 2 20 6 1 3 -11 10 -27 17 -35z m-604 11 c-6 -12 -15 -21 -21 -21 -6 0 -3 7 5 16 9 8 16 20 16 26 0 6 3 9 6 6 3 -4 1 -16 -6 -27z m987 -6 c-4 -8 -11 -15 -17 -15 -6 0 -6 7 2 20 14 22 24 19 15 -5z m-507 1 c0 -3 -5 -8 -12 -12 -7 -4 -8 -3 -4 4 7 12 16 16 16 8z m625 -6 c3 -5 4 -10 1 -10 -3 0 -8 5 -11 10 -3 6 -4 10 -1 10 3 0 8 -4 11 -10z m59 2 c2 -4 -4 -8 -14 -8 -10 0 -16 4 -14 8 3 4 9 8 14 8 5 0 11 -4 14 -8z m46 4 c0 -3 -5 -8 -12 -12 -7 -4 -8 -3 -4 4 7 12 16 16 16 8z m-1283 -53 c-3 -10 -5 -4 -5 12 0 17 2 24 5 18 2 -7 2 -21 0 -30z m1301 -50 c-64 -2 -172 -2 -240 0 -68 1 -15 3 117 3 132 0 187 -2 123 -3z m-1291 -75 c70 -22 89 -38 46 -38 -15 0 -44 -3 -63 -6 -28 -4 -45 1 -84 26 -37 24 -46 34 -36 40 17 11 55 4 137 -22z m1300 23 c-10 -4 -19 -11 -20 -16 -1 -9 -26 -8 -36 0 -9 10 11 20 41 22 22 1 27 -1 15 -6z m110 -7 c2 -6 -5 -14 -17 -17 -15 -4 -20 0 -20 15 0 21 30 23 37 2z m-130 -210 c-9 -9 -28 6 -21 18 4 6 10 6 17 -1 6 -6 8 -13 4 -17z m113 6 c0 -5 -7 -10 -15 -10 -8 0 -15 5 -15 10 0 6 7 10 15 10 8 0 15 -4 15 -10z"/>
 </g>
<g id="layer106" fill="#6d9629" stroke="none">
 <path d="M0 365 l0 -365 890 0 890 0 0 365 0 365 -890 0 -890 0 0 -365z m287 218 c-4 -3 -10 -3 -14 0 -3 4 0 7 7 7 7 0 10 -3 7 -7z m296 -5 c-24 -12 -33 -62 -13 -71 6 -3 5 -4 -2 -3 -21 4 -22 58 -2 73 10 7 23 13 28 12 6 0 1 -5 -11 -11z m357 2 c-8 -5 -19 -10 -25 -10 -5 0 -3 5 5 10 8 5 20 10 25 10 6 0 3 -5 -5 -10z m337 3 c-4 -3 -10 -3 -14 0 -3 4 0 7 7 7 7 0 10 -3 7 -7z m-1026 -40 c-4 -28 -6 -32 -9 -15 -3 22 3 52 11 52 1 0 1 -17 -2 -37z m64 27 c3 -5 4 -10 1 -10 -3 0 -8 5 -11 10 -3 6 -4 10 -1 10 3 0 8 -4 11 -10z m126 -56 c5 -7 3 -11 -6 -11 -11 0 -15 11 -14 41 2 34 3 36 6 11 3 -16 9 -35 14 -41z m189 7 c-6 -12 -15 -21 -21 -21 -6 0 -3 7 5 16 9 8 17 27 17 42 2 23 2 24 6 5 2 -12 -1 -31 -7 -42z m122 -8 c7 -9 7 -13 0 -13 -13 0 -22 26 -21 58 2 26 2 26 6 -3 3 -16 9 -36 15 -42z m55 30 c-3 -10 -5 -4 -5 12 0 17 2 24 5 18 2 -7 2 -21 0 -30z m181 -42 l-2 -56 -3 55 c-3 30 -10 61 -16 70 -11 13 -10 13 6 1 13 -10 17 -26 15 -70z m114 67 c-19 -19 -14 -48 11 -58 13 -5 16 -9 7 -9 -20 -1 -40 18 -40 39 0 15 18 40 29 40 3 0 0 -5 -7 -12z m138 -7 c-13 -25 -13 -27 6 -45 8 -9 11 -16 5 -16 -19 0 -33 38 -21 60 6 11 13 20 16 20 2 0 0 -9 -6 -19z m68 -6 c-3 -3 -9 2 -12 12 -6 14 -5 15 5 6 7 -7 10 -15 7 -18z m-384 -45 c10 -13 9 -13 -6 -1 -10 7 -17 23 -17 35 1 20 2 20 6 1 3 -11 10 -27 17 -35z m-604 11 c-6 -12 -15 -21 -21 -21 -6 0 -3 7 5 16 9 8 16 20 16 26 0 6 3 9 6 6 3 -4 1 -16 -6 -27z m987 -6 c-4 -8 -11 -15 -17 -15 -6 0 -6 7 2 20 14 22 24 19 15 -5z m-507 1 c0 -3 -5 -8 -12 -12 -7 -4 -8 -3 -4 4 7 12 16 16 16 8z m625 -6 c3 -5 4 -10 1 -10 -3 0 -8 5 -11 10 -3 6 -4 10 -1 10 3 0 8 -4 11 -10z m59 2 c2 -4 -4 -8 -14 -8 -10 0 -16 4 -14 8 3 4 9 8 14 8 5 0 11 -4 14 -8z m46 4 c0 -3 -5 -8 -12 -12 -7 -4 -8 -3 -4 4 7 12 16 16 16 8z m-1283 -53 c-3 -10 -5 -4 -5 12 0 17 2 24 5 18 2 -7 2 -21 0 -30z m1261 -50 c-93 -2 -243 -2 -335 0 -93 1 -17 3 167 3 184 0 260 -2 168 -3z m-1251 -74 c79 -26 97 -45 40 -43 -23 1 -49 -2 -57 -6 -25 -14 -143 56 -119 71 16 10 55 3 136 -22z m1413 16 c0 -20 -38 -28 -105 -22 -61 5 -71 10 -60 26 3 6 40 11 86 11 63 0 79 -3 79 -15z m-17 -204 c15 -15 -97 -25 -122 -11 -12 6 -19 16 -15 22 8 12 123 3 137 -11z"/>
 </g>
<g id="layer107" fill="#cf631e" stroke="none">
 <path d="M0 365 l0 -365 890 0 890 0 0 365 0 365 -890 0 -890 0 0 -365z m287 218 c-4 -3 -10 -3 -14 0 -3 4 0 7 7 7 7 0 10 -3 7 -7z m296 -5 c-24 -12 -33 -62 -13 -71 6 -3 5 -4 -2 -3 -21 4 -22 58 -2 73 10 7 23 13 28 12 6 0 1 -5 -11 -11z m357 2 c-8 -5 -19 -10 -25 -10 -5 0 -3 5 5 10 8 5 20 10 25 10 6 0 3 -5 -5 -10z m337 3 c-4 -3 -10 -3 -14 0 -3 4 0 7 7 7 7 0 10 -3 7 -7z m-1026 -40 c-4 -28 -6 -32 -9 -15 -3 22 3 52 11 52 1 0 1 -17 -2 -37z m64 27 c3 -5 4 -10 1 -10 -3 0 -8 5 -11 10 -3 6 -4 10 -1 10 3 0 8 -4 11 -10z m126 -56 c5 -7 3 -11 -6 -11 -11 0 -15 11 -14 41 2 34 3 36 6 11 3 -16 9 -35 14 -41z m189 7 c-6 -12 -15 -21 -21 -21 -6 0 -3 7 5 16 9 8 17 27 17 42 2 23 2 24 6 5 2 -12 -1 -31 -7 -42z m122 -8 c7 -9 7 -13 0 -13 -13 0 -22 26 -21 58 2 26 2 26 6 -3 3 -16 9 -36 15 -42z m55 30 c-3 -10 -5 -4 -5 12 0 17 2 24 5 18 2 -7 2 -21 0 -30z m181 -42 l-2 -56 -3 55 c-3 30 -10 61 -16 70 -11 13 -10 13 6 1 13 -10 17 -26 15 -70z m114 67 c-19 -19 -14 -48 11 -58 13 -5 16 -9 7 -9 -20 -1 -40 18 -40 39 0 15 18 40 29 40 3 0 0 -5 -7 -12z m138 -7 c-13 -25 -13 -27 6 -45 8 -9 11 -16 5 -16 -19 0 -33 38 -21 60 6 11 13 20 16 20 2 0 0 -9 -6 -19z m68 -6 c-3 -3 -9 2 -12 12 -6 14 -5 15 5 6 7 -7 10 -15 7 -18z m-384 -45 c10 -13 9 -13 -6 -1 -10 7 -17 23 -17 35 1 20 2 20 6 1 3 -11 10 -27 17 -35z m-604 11 c-6 -12 -15 -21 -21 -21 -6 0 -3 7 5 16 9 8 16 20 16 26 0 6 3 9 6 6 3 -4 1 -16 -6 -27z m987 -6 c-4 -8 -11 -15 -17 -15 -6 0 -6 7 2 20 14 22 24 19 15 -5z m-507 1 c0 -3 -5 -8 -12 -12 -7 -4 -8 -3 -4 4 7 12 16 16 16 8z m625 -6 c3 -5 4 -10 1 -10 -3 0 -8 5 -11 10 -3 6 -4 10 -1 10 3 0 8 -4 11 -10z m59 2 c2 -4 -4 -8 -14 -8 -10 0 -16 4 -14 8 3 4 9 8 14 8 5 0 11 -4 14 -8z m46 4 c0 -3 -5 -8 -12 -12 -7 -4 -8 -3 -4 4 7 12 16 16 16 8z m-1283 -53 c-3 -10 -5 -4 -5 12 0 17 2 24 5 18 2 -7 2 -21 0 -30z m1261 -50 c-93 -2 -243 -2 -335 0 -93 1 -17 3 167 3 184 0 260 -2 168 -3z m-1251 -74 c79 -26 97 -45 40 -43 -23 1 -49 -2 -57 -6 -25 -14 -143 56 -119 71 16 10 55 3 136 -22z m183 11 c9 -17 8 -20 -8 -20 -24 0 -32 8 -25 26 7 20 20 17 33 -6z m160 5 c10 -12 8 -16 -15 -25 -36 -14 -36 -13 -23 15 13 29 21 31 38 10z m1070 0 c0 -20 -38 -28 -105 -22 -61 5 -71 10 -60 26 3 6 40 11 86 11 63 0 79 -3 79 -15z m-17 -204 c15 -15 -97 -25 -122 -11 -12 6 -19 16 -15 22 8 12 123 3 137 -11z"/>
 </g>
<g id="layer108" fill="#85a225" stroke="none">
 <path d="M0 365 l0 -365 890 0 890 0 0 365 0 365 -890 0 -890 0 0 -365z m287 218 c-4 -3 -10 -3 -14 0 -3 4 0 7 7 7 7 0 10 -3 7 -7z m296 -5 c-24 -12 -33 -62 -13 -71 6 -3 5 -4 -2 -3 -21 4 -22 58 -2 73 10 7 23 13 28 12 6 0 1 -5 -11 -11z m357 2 c-8 -5 -19 -10 -25 -10 -5 0 -3 5 5 10 8 5 20 10 25 10 6 0 3 -5 -5 -10z m337 3 c-4 -3 -10 -3 -14 0 -3 4 0 7 7 7 7 0 10 -3 7 -7z m-1026 -40 c-4 -28 -6 -32 -9 -15 -3 22 3 52 11 52 1 0 1 -17 -2 -37z m64 27 c3 -5 4 -10 1 -10 -3 0 -8 5 -11 10 -3 6 -4 10 -1 10 3 0 8 -4 11 -10z m126 -56 c5 -7 3 -11 -6 -11 -11 0 -15 11 -14 41 2 34 3 36 6 11 3 -16 9 -35 14 -41z m189 7 c-6 -12 -15 -21 -21 -21 -6 0 -3 7 5 16 9 8 17 27 17 42 2 23 2 24 6 5 2 -12 -1 -31 -7 -42z m122 -8 c7 -9 7 -13 0 -13 -13 0 -22 26 -21 58 2 26 2 26 6 -3 3 -16 9 -36 15 -42z m55 30 c-3 -10 -5 -4 -5 12 0 17 2 24 5 18 2 -7 2 -21 0 -30z m181 -42 l-2 -56 -3 55 c-3 30 -10 61 -16 70 -11 13 -10 13 6 1 13 -10 17 -26 15 -70z m114 67 c-19 -19 -14 -48 11 -58 13 -5 16 -9 7 -9 -20 -1 -40 18 -40 39 0 15 18 40 29 40 3 0 0 -5 -7 -12z m138 -7 c-13 -25 -13 -27 6 -45 8 -9 11 -16 5 -16 -19 0 -33 38 -21 60 6 11 13 20 16 20 2 0 0 -9 -6 -19z m68 -6 c-3 -3 -9 2 -12 12 -6 14 -5 15 5 6 7 -7 10 -15 7 -18z m-384 -45 c10 -13 9 -13 -6 -1 -10 7 -17 23 -17 35 1 20 2 20 6 1 3 -11 10 -27 17 -35z m-604 11 c-6 -12 -15 -21 -21 -21 -6 0 -3 7 5 16 9 8 16 20 16 26 0 6 3 9 6 6 3 -4 1 -16 -6 -27z m987 -6 c-4 -8 -11 -15 -17 -15 -6 0 -6 7 2 20 14 22 24 19 15 -5z m-507 1 c0 -3 -5 -8 -12 -12 -7 -4 -8 -3 -4 4 7 12 16 16 16 8z m625 -6 c3 -5 4 -10 1 -10 -3 0 -8 5 -11 10 -3 6 -4 10 -1 10 3 0 8 -4 11 -10z m59 2 c2 -4 -4 -8 -14 -8 -10 0 -16 4 -14 8 3 4 9 8 14 8 5 0 11 -4 14 -8z m46 4 c0 -3 -5 -8 -12 -12 -7 -4 -8 -3 -4 4 7 12 16 16 16 8z m-1283 -53 c-3 -10 -5 -4 -5 12 0 17 2 24 5 18 2 -7 2 -21 0 -30z m1261 -50 c-93 -2 -243 -2 -335 0 -93 1 -17 3 167 3 184 0 260 -2 168 -3z m-1252 -74 c34 -11 71 -30 83 -43 19 -20 20 -24 6 -36 -20 -16 -67 -7 -130 26 -80 43 -109 65 -94 75 16 10 55 3 135 -22z m184 11 c9 -17 8 -20 -8 -20 -24 0 -32 8 -25 26 7 20 20 17 33 -6z m160 5 c10 -12 8 -16 -15 -25 -36 -14 -36 -13 -23 15 13 29 21 31 38 10z m1068 -2 c-3 -15 -15 -18 -62 -19 l-58 -1 -3 -81 -2 -80 59 -7 c32 -4 58 -11 58 -15 0 -5 -25 -12 -55 -15 -77 -10 -101 7 -110 77 -10 69 -8 113 5 138 9 17 21 20 91 20 71 0 80 -2 77 -17z m-1448 -124 c10 -5 -7 -8 -49 -9 -57 0 -62 2 -50 16 13 16 66 13 99 -7z"/>
 </g>
<g id="layer109" fill="#727272" stroke="none">
 <path d="M0 365 l0 -365 890 0 890 0 0 365 0 365 -890 0 -890 0 0 -365z m287 218 c-4 -3 -10 -3 -14 0 -3 4 0 7 7 7 7 0 10 -3 7 -7z m296 -5 c-24 -12 -33 -62 -13 -71 6 -3 5 -4 -2 -3 -21 4 -22 58 -2 73 10 7 23 13 28 12 6 0 1 -5 -11 -11z m357 2 c-8 -5 -19 -10 -25 -10 -5 0 -3 5 5 10 8 5 20 10 25 10 6 0 3 -5 -5 -10z m337 3 c-4 -3 -10 -3 -14 0 -3 4 0 7 7 7 7 0 10 -3 7 -7z m-1026 -40 c-4 -28 -6 -32 -9 -15 -3 22 3 52 11 52 1 0 1 -17 -2 -37z m64 27 c3 -5 4 -10 1 -10 -3 0 -8 5 -11 10 -3 6 -4 10 -1 10 3 0 8 -4 11 -10z m126 -56 c5 -7 3 -11 -6 -11 -11 0 -15 11 -14 41 2 34 3 36 6 11 3 -16 9 -35 14 -41z m189 7 c-6 -12 -15 -21 -21 -21 -6 0 -3 7 5 16 9 8 17 27 17 42 2 23 2 24 6 5 2 -12 -1 -31 -7 -42z m122 -8 c7 -9 7 -13 0 -13 -13 0 -22 26 -21 58 2 26 2 26 6 -3 3 -16 9 -36 15 -42z m55 30 c-3 -10 -5 -4 -5 12 0 17 2 24 5 18 2 -7 2 -21 0 -30z m181 -42 l-2 -56 -3 55 c-3 30 -10 61 -16 70 -11 13 -10 13 6 1 13 -10 17 -26 15 -70z m114 67 c-19 -19 -14 -48 11 -58 13 -5 16 -9 7 -9 -20 -1 -40 18 -40 39 0 15 18 40 29 40 3 0 0 -5 -7 -12z m138 -7 c-13 -25 -13 -27 6 -45 8 -9 11 -16 5 -16 -19 0 -33 38 -21 60 6 11 13 20 16 20 2 0 0 -9 -6 -19z m68 -6 c-3 -3 -9 2 -12 12 -6 14 -5 15 5 6 7 -7 10 -15 7 -18z m-384 -45 c10 -13 9 -13 -6 -1 -10 7 -17 23 -17 35 1 20 2 20 6 1 3 -11 10 -27 17 -35z m-604 11 c-6 -12 -15 -21 -21 -21 -6 0 -3 7 5 16 9 8 16 20 16 26 0 6 3 9 6 6 3 -4 1 -16 -6 -27z m987 -6 c-4 -8 -11 -15 -17 -15 -6 0 -6 7 2 20 14 22 24 19 15 -5z m-507 1 c0 -3 -5 -8 -12 -12 -7 -4 -8 -3 -4 4 7 12 16 16 16 8z m625 -6 c3 -5 4 -10 1 -10 -3 0 -8 5 -11 10 -3 6 -4 10 -1 10 3 0 8 -4 11 -10z m59 2 c2 -4 -4 -8 -14 -8 -10 0 -16 4 -14 8 3 4 9 8 14 8 5 0 11 -4 14 -8z m46 4 c0 -3 -5 -8 -12 -12 -7 -4 -8 -3 -4 4 7 12 16 16 16 8z m-1283 -53 c-3 -10 -5 -4 -5 12 0 17 2 24 5 18 2 -7 2 -21 0 -30z m1261 -50 c-93 -2 -243 -2 -335 0 -93 1 -17 3 167 3 184 0 260 -2 168 -3z m-1252 -74 c34 -11 71 -30 83 -43 19 -20 20 -24 6 -36 -20 -16 -67 -7 -130 26 -80 43 -109 65 -94 75 16 10 55 3 135 -22z m196 -9 c20 -39 27 -200 7 -200 -29 0 -69 157 -55 215 8 33 24 28 48 -15z m146 28 c16 -16 15 -57 -4 -131 -31 -125 -68 -126 -61 -2 4 63 30 145 47 145 3 0 11 -5 18 -12z m1070 -5 c-3 -15 -15 -18 -62 -19 l-58 -1 -3 -81 -2 -80 59 -7 c32 -4 58 -11 58 -15 0 -5 -25 -12 -55 -15 -77 -10 -101 7 -110 77 -10 69 -8 113 5 138 9 17 21 20 91 20 71 0 80 -2 77 -17z m-1448 -124 c10 -5 -7 -8 -49 -9 -57 0 -62 2 -50 16 13 16 66 13 99 -7z"/>
 </g>
<g id="layer110" fill="#4e7692" stroke="none">
 <path d="M0 365 l0 -365 890 0 890 0 0 365 0 365 -890 0 -890 0 0 -365z m314 209 c23 -23 19 -51 -10 -70 -19 -13 -28 -14 -37 -5 -8 8 -6 11 10 11 41 0 54 50 16 64 -27 11 -42 -14 -46 -72 l-3 -57 -2 61 c-2 62 8 84 39 84 10 0 25 -7 33 -16z m137 -61 c10 -3 19 -10 19 -15 0 -7 -36 -3 -47 6 -3 2 -5 71 -2 81 1 6 4 -7 6 -29 3 -27 10 -40 24 -43z m159 68 c0 -5 -7 -8 -16 -7 -21 1 -39 -27 -31 -48 7 -18 42 -22 53 -4 4 6 11 25 15 42 l7 31 1 -37 c1 -29 -4 -41 -23 -53 -45 -30 -91 16 -61 61 15 23 55 34 55 15z m146 -68 c22 -8 44 16 45 51 1 25 3 26 6 7 11 -55 -19 -91 -58 -71 -15 8 -19 20 -17 53 l1 42 4 -38 c3 -21 11 -41 19 -44z m218 61 c11 -11 16 -32 15 -72 l-2 -57 -6 57 c-7 66 -22 88 -49 72 -9 -6 -17 -22 -17 -35 0 -18 7 -25 30 -30 23 -5 26 -7 13 -13 -27 -12 -58 11 -58 42 0 49 42 69 74 36z m166 11 c0 -3 -12 -10 -26 -15 -32 -12 -29 -39 6 -57 22 -11 23 -13 5 -13 -40 0 -61 50 -33 78 12 12 48 17 48 7z m165 -19 c30 -45 -16 -91 -61 -61 -28 18 -31 41 -7 67 22 25 49 23 68 -6z m133 -54 c11 2 19 17 23 43 5 41 15 34 21 -15 5 -41 33 -31 36 13 4 42 22 41 22 -1 0 -43 -14 -55 -65 -57 -54 -2 -75 13 -75 54 0 45 15 46 18 1 3 -32 7 -41 20 -38z m70 -99 c-93 -2 -243 -2 -335 0 -93 1 -17 3 167 3 184 0 260 -2 168 -3z m-1252 -74 c34 -11 71 -30 83 -43 19 -20 20 -24 6 -36 -20 -16 -67 -7 -130 26 -80 43 -109 65 -94 75 16 10 55 3 135 -22z m196 -9 c20 -39 27 -200 7 -200 -29 0 -69 157 -55 215 8 33 24 28 48 -15z m146 28 c16 -16 15 -57 -4 -131 -31 -125 -68 -126 -61 -2 4 63 30 145 47 145 3 0 11 -5 18 -12z m1070 -5 c-3 -15 -15 -18 -62 -19 l-58 -1 -3 -81 -2 -80 59 -7 c32 -4 58 -11 58 -15 0 -5 -25 -12 -55 -15 -77 -10 -101 7 -110 77 -10 69 -8 113 5 138 9 17 21 20 91 20 71 0 80 -2 77 -17z m-1448 -124 c10 -5 -7 -8 -49 -9 -57 0 -62 2 -50 16 13 16 66 13 99 -7z"/>
 <path d="M1252 571 c-8 -4 -12 -19 -10 -32 2 -18 9 -24 28 -24 28 0 39 27 20 50 -14 17 -20 18 -38 6z"/>
 </g>
<g id="layer111" fill="#94378d" stroke="none">
 <path d="M0 365 l0 -365 890 0 890 0 0 365 0 365 -890 0 -890 0 0 -365z m314 209 c23 -23 19 -51 -10 -70 -19 -13 -28 -14 -37 -5 -8 8 -6 11 10 11 41 0 54 50 16 64 -27 11 -42 -14 -46 -72 l-3 -57 -2 61 c-2 62 8 84 39 84 10 0 25 -7 33 -16z m137 -61 c10 -3 19 -10 19 -15 0 -7 -36 -3 -47 6 -3 2 -5 71 -2 81 1 6 4 -7 6 -29 3 -27 10 -40 24 -43z m159 68 c0 -5 -7 -8 -16 -7 -21 1 -39 -27 -31 -48 7 -18 42 -22 53 -4 4 6 11 25 15 42 l7 31 1 -37 c1 -29 -4 -41 -23 -53 -45 -30 -91 16 -61 61 15 23 55 34 55 15z m146 -68 c22 -8 44 16 45 51 1 25 3 26 6 7 11 -55 -19 -91 -58 -71 -15 8 -19 20 -17 53 l1 42 4 -38 c3 -21 11 -41 19 -44z m218 61 c11 -11 16 -32 15 -72 l-2 -57 -6 57 c-7 66 -22 88 -49 72 -9 -6 -17 -22 -17 -35 0 -18 7 -25 30 -30 23 -5 26 -7 13 -13 -27 -12 -58 11 -58 42 0 49 42 69 74 36z m166 11 c0 -3 -12 -10 -26 -15 -32 -12 -29 -39 6 -57 22 -11 23 -13 5 -13 -40 0 -61 50 -33 78 12 12 48 17 48 7z m165 -19 c30 -45 -16 -91 -61 -61 -28 18 -31 41 -7 67 22 25 49 23 68 -6z m133 -54 c11 2 19 17 23 43 5 41 15 34 21 -15 5 -41 33 -31 36 13 4 42 22 41 22 -1 0 -43 -14 -55 -65 -57 -54 -2 -75 13 -75 54 0 45 15 46 18 1 3 -32 7 -41 20 -38z m70 -99 c-93 -2 -243 -2 -335 0 -93 1 -17 3 167 3 184 0 260 -2 168 -3z m-1252 -74 c34 -11 71 -30 83 -43 19 -20 20 -24 6 -36 -20 -16 -67 -7 -130 26 -80 43 -109 65 -94 75 16 10 55 3 135 -22z m196 -9 c20 -39 27 -200 7 -200 -29 0 -69 157 -55 215 8 33 24 28 48 -15z m146 28 c16 -16 15 -57 -4 -131 -31 -125 -68 -126 -61 -2 4 63 30 145 47 145 3 0 11 -5 18 -12z m1070 -5 c-3 -15 -15 -18 -62 -19 l-58 -1 -3 -81 -2 -80 59 -7 c32 -4 58 -11 58 -15 0 -5 -25 -12 -55 -15 -77 -10 -101 7 -110 77 -10 69 -8 113 5 138 9 17 21 20 91 20 71 0 80 -2 77 -17z m-826 -110 c0 -22 -59 -113 -74 -113 -20 0 7 143 40 205 l16 30 9 -50 c5 -27 9 -60 9 -72z m-622 -14 c10 -5 -7 -8 -49 -9 -57 0 -62 2 -50 16 13 16 66 13 99 -7z m722 -92 c-9 -19 -18 6 -13 40 l5 38 6 -35 c3 -19 4 -38 2 -43z"/>
 <path d="M1252 571 c-8 -4 -12 -19 -10 -32 2 -18 9 -24 28 -24 28 0 39 27 20 50 -14 17 -20 18 -38 6z"/>
 </g>
<g id="layer112" fill="#6b9956" stroke="none">
 <path d="M0 365 l0 -365 890 0 890 0 0 365 0 365 -890 0 -890 0 0 -365z m314 209 c23 -23 19 -51 -10 -70 -19 -13 -28 -14 -37 -5 -8 8 -6 11 10 11 41 0 54 50 16 64 -27 11 -42 -14 -46 -72 l-3 -57 -2 61 c-2 62 8 84 39 84 10 0 25 -7 33 -16z m137 -61 c10 -3 19 -10 19 -15 0 -7 -36 -3 -47 6 -3 2 -5 71 -2 81 1 6 4 -7 6 -29 3 -27 10 -40 24 -43z m159 68 c0 -5 -7 -8 -16 -7 -21 1 -39 -27 -31 -48 7 -18 42 -22 53 -4 4 6 11 25 15 42 l7 31 1 -37 c1 -29 -4 -41 -23 -53 -45 -30 -91 16 -61 61 15 23 55 34 55 15z m146 -68 c22 -8 44 16 45 51 1 25 3 26 6 7 11 -55 -19 -91 -58 -71 -15 8 -19 20 -17 53 l1 42 4 -38 c3 -21 11 -41 19 -44z m218 61 c11 -11 16 -32 15 -72 l-2 -57 -6 57 c-7 66 -22 88 -49 72 -9 -6 -17 -22 -17 -35 0 -18 7 -25 30 -30 23 -5 26 -7 13 -13 -27 -12 -58 11 -58 42 0 49 42 69 74 36z m166 11 c0 -3 -12 -10 -26 -15 -32 -12 -29 -39 6 -57 22 -11 23 -13 5 -13 -40 0 -61 50 -33 78 12 12 48 17 48 7z m165 -19 c30 -45 -16 -91 -61 -61 -28 18 -31 41 -7 67 22 25 49 23 68 -6z m133 -54 c11 2 19 17 23 43 5 41 15 34 21 -15 5 -41 33 -31 36 13 4 42 22 41 22 -1 0 -43 -14 -55 -65 -57 -54 -2 -75 13 -75 54 0 45 15 46 18 1 3 -32 7 -41 20 -38z m70 -99 c-93 -2 -243 -2 -335 0 -93 1 -17 3 167 3 184 0 260 -2 168 -3z m-370 -75 c23 -45 52 -133 52 -158 l0 -25 21 25 c14 18 18 19 11 5 -6 -11 -19 -28 -30 -39 -20 -17 -21 -17 -49 26 -45 69 -76 181 -57 201 10 10 39 -9 52 -35z m-872 1 c28 -11 61 -30 73 -43 19 -20 20 -24 6 -36 -20 -17 -66 -7 -140 31 -69 36 -97 58 -89 71 8 12 87 0 150 -23z m186 -9 c20 -39 27 -200 7 -200 -29 0 -69 157 -55 215 8 33 24 28 48 -15z m146 28 c16 -16 15 -57 -4 -131 -31 -125 -68 -126 -61 -2 4 63 30 145 47 145 3 0 11 -5 18 -12z m642 -8 c-6 -11 -13 -20 -16 -20 -2 0 0 9 6 20 6 11 13 20 16 20 2 0 0 -9 -6 -20z m428 3 c-3 -15 -15 -18 -62 -19 l-58 -1 -3 -81 -2 -80 59 -7 c32 -4 58 -11 58 -15 0 -5 -25 -12 -55 -15 -77 -10 -101 7 -110 77 -10 69 -8 113 5 138 9 17 21 20 91 20 71 0 80 -2 77 -17z m-826 -110 c0 -22 -59 -113 -74 -113 -20 0 7 143 40 205 l16 30 9 -50 c5 -27 9 -60 9 -72z m375 60 c-4 -3 -7 0 -7 7 0 7 3 10 7 7 3 -4 3 -10 0 -14z m30 0 c-4 -3 -7 0 -7 7 0 7 3 10 7 7 3 -4 3 -10 0 -14z m10 -40 c-4 -3 -7 0 -7 7 0 7 3 10 7 7 3 -4 3 -10 0 -14z m-60 -20 c-4 -3 -7 0 -7 7 0 7 3 10 7 7 3 -4 3 -10 0 -14z m-977 -14 c10 -5 -7 -8 -49 -9 -57 0 -62 2 -50 16 13 16 66 13 99 -7z m722 -92 c-9 -19 -18 6 -13 40 l5 38 6 -35 c3 -19 4 -38 2 -43z"/>
 <path d="M1252 571 c-8 -4 -12 -19 -10 -32 2 -18 9 -24 28 -24 28 0 39 27 20 50 -14 17 -20 18 -38 6z"/>
 </g>
<g id="layer113" fill="#b2615a" stroke="none">
 <path d="M0 365 l0 -365 890 0 890 0 0 365 0 365 -890 0 -890 0 0 -365z m314 209 c23 -23 19 -51 -10 -70 -19 -13 -28 -14 -37 -5 -8 8 -6 11 10 11 41 0 54 50 16 64 -27 11 -42 -14 -46 -72 l-3 -57 -2 61 c-2 62 8 84 39 84 10 0 25 -7 33 -16z m137 -61 c10 -3 19 -10 19 -15 0 -7 -36 -3 -47 6 -3 2 -5 71 -2 81 1 6 4 -7 6 -29 3 -27 10 -40 24 -43z m159 68 c0 -5 -7 -8 -16 -7 -21 1 -39 -27 -31 -48 7 -18 42 -22 53 -4 4 6 11 25 15 42 l7 31 1 -37 c1 -29 -4 -41 -23 -53 -45 -30 -91 16 -61 61 15 23 55 34 55 15z m146 -68 c22 -8 44 16 45 51 1 25 3 26 6 7 11 -55 -19 -91 -58 -71 -15 8 -19 20 -17 53 l1 42 4 -38 c3 -21 11 -41 19 -44z m218 61 c11 -11 16 -32 15 -72 l-2 -57 -6 57 c-7 66 -22 88 -49 72 -9 -6 -17 -22 -17 -35 0 -18 7 -25 30 -30 23 -5 26 -7 13 -13 -27 -12 -58 11 -58 42 0 49 42 69 74 36z m166 11 c0 -3 -12 -10 -26 -15 -32 -12 -29 -39 6 -57 22 -11 23 -13 5 -13 -40 0 -61 50 -33 78 12 12 48 17 48 7z m165 -19 c30 -45 -16 -91 -61 -61 -28 18 -31 41 -7 67 22 25 49 23 68 -6z m133 -54 c11 2 19 17 23 43 5 41 15 34 21 -15 5 -41 33 -31 36 13 4 42 22 41 22 -1 0 -43 -14 -55 -65 -57 -54 -2 -75 13 -75 54 0 45 15 46 18 1 3 -32 7 -41 20 -38z m70 -99 c-93 -2 -243 -2 -335 0 -93 1 -17 3 167 3 184 0 260 -2 168 -3z m-906 -49 c13 -8 9 -70 -8 -137 -31 -125 -68 -126 -61 -2 3 39 6 77 8 85 3 11 -6 16 -36 18 l-41 3 4 -101 c5 -115 -6 -129 -40 -52 -15 32 -22 68 -22 117 l-1 70 45 6 c45 7 137 2 152 -7z m536 -26 c23 -45 52 -133 52 -158 l0 -25 21 25 c14 18 18 19 11 5 -6 -11 -19 -28 -30 -39 -20 -17 -21 -17 -49 26 -45 69 -76 181 -57 201 10 10 39 -9 52 -35z m-872 1 c28 -11 61 -30 73 -43 19 -20 20 -24 6 -36 -20 -17 -66 -7 -140 31 -69 36 -97 58 -89 71 8 12 87 0 150 -23z m974 11 c-6 -11 -13 -20 -16 -20 -2 0 0 9 6 20 6 11 13 20 16 20 2 0 0 -9 -6 -20z m428 3 c-3 -15 -15 -18 -62 -19 l-58 -1 -3 -81 -2 -80 59 -7 c32 -4 58 -11 58 -15 0 -5 -25 -12 -55 -15 -77 -10 -101 7 -110 77 -10 69 -8 113 5 138 9 17 21 20 91 20 71 0 80 -2 77 -17z m-826 -110 c0 -22 -59 -113 -74 -113 -20 0 7 143 40 205 l16 30 9 -50 c5 -27 9 -60 9 -72z m375 60 c-4 -3 -7 0 -7 7 0 7 3 10 7 7 3 -4 3 -10 0 -14z m30 0 c-4 -3 -7 0 -7 7 0 7 3 10 7 7 3 -4 3 -10 0 -14z m10 -40 c-4 -3 -7 0 -7 7 0 7 3 10 7 7 3 -4 3 -10 0 -14z m-60 -20 c-4 -3 -7 0 -7 7 0 7 3 10 7 7 3 -4 3 -10 0 -14z m-977 -14 c10 -5 -7 -8 -49 -9 -57 0 -62 2 -50 16 13 16 66 13 99 -7z m722 -92 c-9 -19 -18 6 -13 40 l5 38 6 -35 c3 -19 4 -38 2 -43z"/>
 <path d="M1252 571 c-8 -4 -12 -19 -10 -32 2 -18 9 -24 28 -24 28 0 39 27 20 50 -14 17 -20 18 -38 6z"/>
 </g>
<g id="layer114" fill="#c42a89" stroke="none">
 <path d="M0 365 l0 -365 890 0 890 0 0 365 0 365 -890 0 -890 0 0 -365z m314 209 c23 -23 19 -51 -10 -70 -19 -13 -28 -14 -37 -5 -8 8 -6 11 10 11 41 0 54 50 16 64 -27 11 -42 -14 -46 -72 l-3 -57 -2 61 c-2 62 8 84 39 84 10 0 25 -7 33 -16z m137 -61 c10 -3 19 -10 19 -15 0 -7 -36 -3 -47 6 -3 2 -5 71 -2 81 1 6 4 -7 6 -29 3 -27 10 -40 24 -43z m159 68 c0 -5 -7 -8 -16 -7 -21 1 -39 -27 -31 -48 7 -18 42 -22 53 -4 4 6 11 25 15 42 l7 31 1 -37 c1 -29 -4 -41 -23 -53 -45 -30 -91 16 -61 61 15 23 55 34 55 15z m146 -68 c22 -8 44 16 45 51 1 25 3 26 6 7 11 -55 -19 -91 -58 -71 -15 8 -19 20 -17 53 l1 42 4 -38 c3 -21 11 -41 19 -44z m218 61 c11 -11 16 -32 15 -72 l-2 -57 -6 57 c-7 66 -22 88 -49 72 -9 -6 -17 -22 -17 -35 0 -18 7 -25 30 -30 23 -5 26 -7 13 -13 -27 -12 -58 11 -58 42 0 49 42 69 74 36z m166 11 c0 -3 -12 -10 -26 -15 -32 -12 -29 -39 6 -57 22 -11 23 -13 5 -13 -40 0 -61 50 -33 78 12 12 48 17 48 7z m165 -19 c30 -45 -16 -91 -61 -61 -28 18 -31 41 -7 67 22 25 49 23 68 -6z m133 -54 c11 2 19 17 23 43 5 41 15 34 21 -15 5 -41 33 -31 36 13 4 42 22 41 22 -1 0 -43 -14 -55 -65 -57 -54 -2 -75 13 -75 54 0 45 15 46 18 1 3 -32 7 -41 20 -38z m5 -99 c-127 -2 -339 -2 -470 0 -131 1 -27 2 232 2 259 0 366 -1 238 -2z m-841 -49 c13 -8 9 -70 -8 -137 -31 -125 -68 -126 -61 -2 3 39 6 77 8 85 3 11 -6 16 -36 18 l-41 3 4 -101 c5 -115 -6 -129 -40 -52 -15 32 -22 68 -22 117 l-1 70 45 6 c45 7 137 2 152 -7z m536 -26 c23 -45 52 -133 52 -158 l0 -25 21 25 c14 18 18 19 11 5 -6 -11 -19 -28 -30 -39 -20 -17 -21 -17 -49 26 -45 69 -76 181 -57 201 10 10 39 -9 52 -35z m-873 1 c28 -11 61 -28 75 -39 23 -18 24 -20 8 -36 -22 -22 -68 -13 -145 27 -68 37 -95 58 -87 71 8 12 88 0 149 -23z m975 11 c-6 -11 -13 -20 -16 -20 -2 0 0 9 6 20 6 11 13 20 16 20 2 0 0 -9 -6 -20z m428 3 c-3 -15 -15 -18 -62 -19 l-58 -1 -3 -81 -2 -80 59 -7 c32 -4 58 -11 58 -15 0 -5 -25 -12 -55 -15 -77 -10 -101 7 -110 77 -10 69 -8 113 5 138 9 17 21 20 91 20 71 0 80 -2 77 -17z m-826 -110 c0 -22 -59 -113 -74 -113 -20 0 7 143 40 205 l16 30 9 -50 c5 -27 9 -60 9 -72z m375 60 c-4 -3 -7 0 -7 7 0 7 3 10 7 7 3 -4 3 -10 0 -14z m30 0 c-4 -3 -7 0 -7 7 0 7 3 10 7 7 3 -4 3 -10 0 -14z m10 -40 c-4 -3 -7 0 -7 7 0 7 3 10 7 7 3 -4 3 -10 0 -14z m-60 -20 c-4 -3 -7 0 -7 7 0 7 3 10 7 7 3 -4 3 -10 0 -14z m-977 -14 c10 -5 -7 -8 -49 -9 -57 0 -62 2 -50 16 13 16 66 13 99 -7z m722 -92 c-9 -19 -18 6 -13 40 l5 38 6 -35 c3 -19 4 -38 2 -43z"/>
 <path d="M1252 571 c-8 -4 -12 -19 -10 -32 2 -18 9 -24 28 -24 28 0 39 27 20 50 -14 17 -20 18 -38 6z"/>
 </g>
<g id="layer115" fill="#c76358" stroke="none">
 <path d="M0 365 l0 -365 890 0 890 0 0 365 0 365 -890 0 -890 0 0 -365z m314 209 c23 -23 19 -51 -10 -70 -19 -13 -28 -14 -37 -5 -8 8 -6 11 10 11 41 0 54 50 16 64 -27 11 -42 -14 -46 -72 l-3 -57 -2 61 c-2 62 8 84 39 84 10 0 25 -7 33 -16z m137 -61 c10 -3 19 -10 19 -15 0 -7 -36 -3 -47 6 -3 2 -5 71 -2 81 1 6 4 -7 6 -29 3 -27 10 -40 24 -43z m159 68 c0 -5 -7 -8 -16 -7 -21 1 -39 -27 -31 -48 7 -18 42 -22 53 -4 4 6 11 25 15 42 l7 31 1 -37 c1 -29 -4 -41 -23 -53 -45 -30 -91 16 -61 61 15 23 55 34 55 15z m146 -68 c22 -8 44 16 45 51 1 25 3 26 6 7 11 -55 -19 -91 -58 -71 -15 8 -19 20 -17 53 l1 42 4 -38 c3 -21 11 -41 19 -44z m218 61 c11 -11 16 -32 15 -72 l-2 -57 -6 57 c-7 66 -22 88 -49 72 -9 -6 -17 -22 -17 -35 0 -18 7 -25 30 -30 23 -5 26 -7 13 -13 -27 -12 -58 11 -58 42 0 49 42 69 74 36z m166 11 c0 -3 -12 -10 -26 -15 -32 -12 -29 -39 6 -57 22 -11 23 -13 5 -13 -40 0 -61 50 -33 78 12 12 48 17 48 7z m165 -19 c30 -45 -16 -91 -61 -61 -28 18 -31 41 -7 67 22 25 49 23 68 -6z m133 -54 c11 2 19 17 23 43 5 41 15 34 21 -15 5 -41 33 -31 36 13 4 42 22 41 22 -1 0 -43 -14 -55 -65 -57 -54 -2 -75 13 -75 54 0 45 15 46 18 1 3 -32 7 -41 20 -38z m5 -99 c-127 -2 -339 -2 -470 0 -131 1 -27 2 232 2 259 0 366 -1 238 -2z m-841 -49 c13 -8 9 -70 -8 -137 -31 -125 -68 -126 -61 -2 3 39 6 77 8 85 3 11 -6 16 -36 18 l-41 3 4 -101 c5 -115 -6 -129 -40 -52 -15 32 -22 68 -22 117 l-1 70 45 6 c45 7 137 2 152 -7z m536 -26 c23 -45 52 -133 52 -158 l0 -25 21 25 c14 18 18 19 11 5 -6 -11 -19 -28 -30 -39 -20 -17 -21 -17 -49 26 -45 69 -76 181 -57 201 10 10 39 -9 52 -35z m-873 1 c28 -11 61 -28 75 -39 23 -18 24 -20 8 -36 -22 -22 -68 -13 -145 27 -68 37 -95 58 -87 71 8 12 88 0 149 -23z m1021 5 c-4 -15 -10 -39 -13 -55 -8 -41 -20 -36 -28 11 -4 23 -11 37 -17 34 -6 -4 -5 2 1 15 7 13 21 21 37 21 23 0 25 -3 20 -26z m382 9 c-3 -15 -15 -18 -62 -19 l-58 -1 -3 -81 -2 -80 59 -7 c32 -4 58 -11 58 -15 0 -5 -25 -12 -55 -15 -77 -10 -101 7 -110 77 -10 69 -8 113 5 138 9 17 21 20 91 20 71 0 80 -2 77 -17z m-826 -110 c0 -22 -59 -113 -74 -113 -20 0 7 143 40 205 l16 30 9 -50 c5 -27 9 -60 9 -72z m375 60 c-4 -3 -7 0 -7 7 0 7 3 10 7 7 3 -4 3 -10 0 -14z m-20 -60 c-4 -3 -7 0 -7 7 0 7 3 10 7 7 3 -4 3 -10 0 -14z m-990 -9 c51 -17 142 -73 143 -88 0 -15 -114 1 -168 24 -63 27 -79 44 -62 65 16 19 28 19 87 -1z m735 -97 c-9 -19 -18 6 -13 40 l5 38 6 -35 c3 -19 4 -38 2 -43z"/>
 <path d="M1252 571 c-8 -4 -12 -19 -10 -32 2 -18 9 -24 28 -24 28 0 39 27 20 50 -14 17 -20 18 -38 6z"/>
 <path d="M143 213 c15 -2 39 -2 55 0 15 2 2 4 -28 4 -30 0 -43 -2 -27 -4z"/>
 </g>
<g id="layer116" fill="#5987a8" stroke="none">
 <path d="M0 365 l0 -365 890 0 890 0 0 365 0 365 -890 0 -890 0 0 -365z m314 209 c23 -23 19 -51 -10 -70 -19 -13 -28 -14 -37 -5 -8 8 -6 11 10 11 41 0 54 50 16 64 -27 11 -42 -14 -46 -72 l-3 -57 -2 61 c-2 62 8 84 39 84 10 0 25 -7 33 -16z m137 -61 c10 -3 19 -10 19 -15 0 -7 -36 -3 -47 6 -3 2 -5 71 -2 81 1 6 4 -7 6 -29 3 -27 10 -40 24 -43z m159 68 c0 -5 -7 -8 -16 -7 -21 1 -39 -27 -31 -48 7 -18 42 -22 53 -4 4 6 11 25 15 42 l7 31 1 -37 c1 -29 -4 -41 -23 -53 -45 -30 -91 16 -61 61 15 23 55 34 55 15z m146 -68 c22 -8 44 16 45 51 1 25 3 26 6 7 11 -55 -19 -91 -58 -71 -15 8 -19 20 -17 53 l1 42 4 -38 c3 -21 11 -41 19 -44z m218 61 c11 -11 16 -32 15 -72 l-2 -57 -6 57 c-7 66 -22 88 -49 72 -9 -6 -17 -22 -17 -35 0 -18 7 -25 30 -30 23 -5 26 -7 13 -13 -27 -12 -58 11 -58 42 0 49 42 69 74 36z m166 11 c0 -3 -12 -10 -26 -15 -32 -12 -29 -39 6 -57 22 -11 23 -13 5 -13 -40 0 -61 50 -33 78 12 12 48 17 48 7z m165 -19 c30 -45 -16 -91 -61 -61 -28 18 -31 41 -7 67 22 25 49 23 68 -6z m133 -54 c11 2 19 17 23 43 5 41 15 34 21 -15 5 -41 33 -31 36 13 4 42 22 41 22 -1 0 -43 -14 -55 -65 -57 -54 -2 -75 13 -75 54 0 45 15 46 18 1 3 -32 7 -41 20 -38z m-70 -99 c-169 -2 -448 -2 -620 0 -172 1 -34 2 307 2 341 0 482 -1 313 -2z m-766 -49 c13 -8 9 -70 -8 -137 -31 -125 -68 -126 -61 -2 3 39 6 77 8 85 3 11 -6 16 -36 18 l-41 3 4 -101 c5 -115 -6 -129 -40 -52 -15 32 -22 68 -22 117 l-1 70 45 6 c45 7 137 2 152 -7z m536 -26 c23 -45 52 -133 52 -158 l0 -25 21 25 c14 18 18 19 11 5 -6 -11 -19 -28 -30 -39 -20 -17 -21 -17 -49 26 -45 69 -76 181 -57 201 10 10 39 -9 52 -35z m523 31 c35 -18 5 -39 -57 -39 l-54 0 0 -57 c0 -32 -3 -68 -6 -80 -6 -22 -3 -23 42 -23 50 0 84 -13 71 -27 -4 -4 -37 -9 -72 -11 l-65 -4 -15 36 c-17 40 -23 183 -8 196 19 19 134 25 164 9z m-1396 -30 c28 -11 61 -28 75 -39 23 -18 24 -20 8 -36 -22 -22 -68 -13 -145 27 -68 37 -95 58 -87 71 8 12 88 0 149 -23z m1021 5 c-4 -15 -10 -39 -13 -55 -8 -41 -20 -36 -28 11 -4 23 -11 37 -17 34 -6 -4 -5 2 1 15 7 13 21 21 37 21 23 0 25 -3 20 -26z m-444 -101 c0 -22 -59 -113 -74 -113 -20 0 7 143 40 205 l16 30 9 -50 c5 -27 9 -60 9 -72z m375 60 c-4 -3 -7 0 -7 7 0 7 3 10 7 7 3 -4 3 -10 0 -14z m-20 -60 c-4 -3 -7 0 -7 7 0 7 3 10 7 7 3 -4 3 -10 0 -14z m-990 -9 c51 -17 142 -73 143 -88 0 -15 -114 1 -168 24 -58 25 -77 43 -68 65 7 19 33 19 93 -1z m735 -97 c-9 -19 -18 6 -13 40 l5 38 6 -35 c3 -19 4 -38 2 -43z"/>
 <path d="M1252 571 c-8 -4 -12 -19 -10 -32 2 -18 9 -24 28 -24 28 0 39 27 20 50 -14 17 -20 18 -38 6z"/>
 </g>
<g id="layer117" fill="#e19b18" stroke="none">
 <path d="M0 365 l0 -365 890 0 890 0 0 365 0 365 -890 0 -890 0 0 -365z m314 209 c23 -23 19 -51 -10 -70 -19 -13 -28 -14 -37 -5 -8 8 -6 11 10 11 41 0 54 50 16 64 -27 11 -42 -14 -46 -72 l-3 -57 -2 61 c-2 62 8 84 39 84 10 0 25 -7 33 -16z m137 -61 c10 -3 19 -10 19 -15 0 -7 -36 -3 -47 6 -3 2 -5 71 -2 81 1 6 4 -7 6 -29 3 -27 10 -40 24 -43z m159 68 c0 -5 -7 -8 -16 -7 -21 1 -39 -27 -31 -48 7 -18 42 -22 53 -4 4 6 11 25 15 42 l7 31 1 -37 c1 -29 -4 -41 -23 -53 -45 -30 -91 16 -61 61 15 23 55 34 55 15z m146 -68 c22 -8 44 16 45 51 1 25 3 26 6 7 11 -55 -19 -91 -58 -71 -15 8 -19 20 -17 53 l1 42 4 -38 c3 -21 11 -41 19 -44z m218 61 c11 -11 16 -32 15 -72 l-2 -57 -6 57 c-7 66 -22 88 -49 72 -9 -6 -17 -22 -17 -35 0 -18 7 -25 30 -30 23 -5 26 -7 13 -13 -27 -12 -58 11 -58 42 0 49 42 69 74 36z m166 11 c0 -3 -12 -10 -26 -15 -32 -12 -29 -39 6 -57 22 -11 23 -13 5 -13 -40 0 -61 50 -33 78 12 12 48 17 48 7z m165 -19 c30 -45 -16 -91 -61 -61 -28 18 -31 41 -7 67 22 25 49 23 68 -6z m133 -54 c11 2 19 17 23 43 5 41 15 34 21 -15 5 -41 33 -31 36 13 4 42 22 41 22 -1 0 -43 -14 -55 -65 -57 -54 -2 -75 13 -75 54 0 45 15 46 18 1 3 -32 7 -41 20 -38z m-70 -99 c-169 -2 -448 -2 -620 0 -172 1 -34 2 307 2 341 0 482 -1 313 -2z m-766 -49 c13 -8 9 -70 -8 -137 -31 -125 -68 -126 -61 -2 3 39 6 77 8 85 3 11 -6 16 -36 18 l-41 3 4 -101 c5 -115 -6 -129 -40 -52 -15 32 -22 68 -22 117 l-1 70 45 6 c45 7 137 2 152 -7z m422 -45 c-2 -40 -10 -69 -33 -110 -59 -107 -86 -98 -57 18 37 145 93 203 90 92z m114 19 c23 -45 52 -133 52 -158 l0 -25 21 25 c14 18 18 19 11 5 -6 -11 -19 -28 -30 -39 -20 -17 -21 -17 -49 26 -45 69 -76 181 -57 201 10 10 39 -9 52 -35z m523 31 c35 -18 5 -39 -57 -39 l-54 0 0 -57 c0 -32 -3 -68 -6 -80 -6 -22 -3 -23 42 -23 50 0 84 -13 71 -27 -4 -4 -37 -9 -72 -11 l-65 -4 -15 36 c-17 40 -23 183 -8 196 19 19 134 25 164 9z m-1396 -30 c28 -11 61 -28 75 -39 23 -18 24 -20 8 -36 -22 -22 -68 -13 -145 27 -68 37 -95 58 -87 71 8 12 88 0 149 -23z m572 -4 c1 -19 3 -52 5 -72 2 -29 -5 -49 -30 -85 -18 -27 -37 -48 -42 -48 -16 0 -11 72 10 134 17 51 45 106 53 106 1 0 3 -16 4 -35z m449 9 c-4 -15 -10 -39 -13 -55 -8 -41 -20 -36 -28 11 -4 23 -11 37 -17 34 -6 -4 -5 2 1 15 7 13 21 21 37 21 23 0 25 -3 20 -26z m-69 -41 c-4 -3 -7 0 -7 7 0 7 3 10 7 7 3 -4 3 -10 0 -14z m-20 -60 c-4 -3 -7 0 -7 7 0 7 3 10 7 7 3 -4 3 -10 0 -14z m-990 -9 c51 -17 142 -73 143 -88 0 -15 -114 1 -168 24 -58 25 -77 43 -68 65 7 19 33 19 93 -1z"/>
 <path d="M1252 571 c-8 -4 -12 -19 -10 -32 2 -18 9 -24 28 -24 28 0 39 27 20 50 -14 17 -20 18 -38 6z"/>
 </g>
<g id="layer118" fill="#a55fa0" stroke="none">
 <path d="M0 365 l0 -365 890 0 890 0 0 365 0 365 -890 0 -890 0 0 -365z m314 209 c23 -23 19 -51 -10 -70 -19 -13 -28 -14 -37 -5 -8 8 -6 11 10 11 41 0 54 50 16 64 -27 11 -42 -14 -46 -72 l-3 -57 -2 61 c-2 62 8 84 39 84 10 0 25 -7 33 -16z m137 -61 c10 -3 19 -10 19 -15 0 -7 -36 -3 -47 6 -3 2 -5 71 -2 81 1 6 4 -7 6 -29 3 -27 10 -40 24 -43z m159 68 c0 -5 -7 -8 -16 -7 -21 1 -39 -27 -31 -48 7 -18 42 -22 53 -4 4 6 11 25 15 42 l7 31 1 -37 c1 -29 -4 -41 -23 -53 -45 -30 -91 16 -61 61 15 23 55 34 55 15z m146 -68 c22 -8 44 16 45 51 1 25 3 26 6 7 11 -55 -19 -91 -58 -71 -15 8 -19 20 -17 53 l1 42 4 -38 c3 -21 11 -41 19 -44z m218 61 c11 -11 16 -32 15 -72 l-2 -57 -6 57 c-7 66 -22 88 -49 72 -9 -6 -17 -22 -17 -35 0 -18 7 -25 30 -30 23 -5 26 -7 13 -13 -27 -12 -58 11 -58 42 0 49 42 69 74 36z m166 11 c0 -3 -12 -10 -26 -15 -32 -12 -29 -39 6 -57 22 -11 23 -13 5 -13 -40 0 -61 50 -33 78 12 12 48 17 48 7z m165 -19 c30 -45 -16 -91 -61 -61 -28 18 -31 41 -7 67 22 25 49 23 68 -6z m133 -54 c11 2 19 17 23 43 5 41 15 34 21 -15 5 -41 33 -31 36 13 4 42 22 41 22 -1 0 -43 -14 -55 -65 -57 -54 -2 -75 13 -75 54 0 45 15 46 18 1 3 -32 7 -41 20 -38z m-70 -99 c-169 -2 -448 -2 -620 0 -172 1 -34 2 307 2 341 0 482 -1 313 -2z m-766 -49 c13 -8 9 -70 -8 -137 -31 -125 -68 -126 -61 -2 3 39 6 77 8 85 3 11 -6 16 -36 18 l-41 3 4 -101 c5 -115 -6 -129 -40 -52 -15 32 -22 68 -22 117 l-1 70 45 6 c45 7 137 2 152 -7z m422 -45 c-2 -40 -10 -69 -33 -110 -59 -107 -86 -98 -57 18 37 145 93 203 90 92z m114 19 c23 -45 52 -133 52 -158 l0 -25 21 25 c14 18 18 19 11 5 -6 -11 -19 -28 -30 -39 -20 -17 -21 -17 -49 26 -45 69 -76 181 -57 201 10 10 39 -9 52 -35z m527 28 c16 -11 19 -26 19 -82 0 -86 -17 -140 -47 -148 -12 -3 -44 -6 -70 -6 -46 0 -49 2 -63 36 -16 38 -21 181 -7 194 21 21 142 25 168 6z m-1400 -27 c28 -11 61 -28 75 -38 24 -19 24 -20 6 -40 -10 -11 -34 -23 -52 -27 -19 -3 -34 -9 -34 -13 0 -3 20 -19 45 -36 24 -16 45 -34 45 -39 0 -18 -122 2 -178 31 -76 38 -78 57 -11 87 l53 23 -34 18 c-46 23 -71 45 -64 57 8 12 88 0 149 -23z m572 -4 c1 -19 3 -52 5 -72 2 -29 -5 -49 -30 -85 -18 -27 -37 -48 -42 -48 -16 0 -11 72 10 134 17 51 45 106 53 106 1 0 3 -16 4 -35z m449 9 c-4 -15 -10 -39 -13 -55 -8 -41 -20 -36 -28 11 -4 23 -11 37 -17 34 -6 -4 -5 2 1 15 7 13 21 21 37 21 23 0 25 -3 20 -26z m-69 -41 c-4 -3 -7 0 -7 7 0 7 3 10 7 7 3 -4 3 -10 0 -14z m-20 -60 c-4 -3 -7 0 -7 7 0 7 3 10 7 7 3 -4 3 -10 0 -14z"/>
 <path d="M1252 571 c-8 -4 -12 -19 -10 -32 2 -18 9 -24 28 -24 28 0 39 27 20 50 -14 17 -20 18 -38 6z"/>
 <path d="M1550 273 c0 -32 -3 -68 -6 -80 -6 -22 -3 -23 41 -23 l48 0 -7 38 c-3 20 -6 56 -6 80 0 41 -1 42 -35 42 l-35 0 0 -57z"/>
 </g>
<g id="layer119" fill="#c45d9d" stroke="none">
 <path d="M0 365 l0 -365 890 0 890 0 0 365 0 365 -890 0 -890 0 0 -365z m314 209 c23 -23 19 -51 -10 -70 -19 -13 -28 -14 -37 -5 -8 8 -6 11 10 11 41 0 54 50 16 64 -27 11 -42 -14 -46 -72 l-3 -57 -2 61 c-2 62 8 84 39 84 10 0 25 -7 33 -16z m137 -61 c10 -3 19 -10 19 -15 0 -7 -36 -3 -47 6 -3 2 -5 71 -2 81 1 6 4 -7 6 -29 3 -27 10 -40 24 -43z m159 68 c0 -5 -7 -8 -16 -7 -21 1 -39 -27 -31 -48 7 -18 42 -22 53 -4 4 6 11 25 15 42 l7 31 1 -37 c1 -29 -4 -41 -23 -53 -45 -30 -91 16 -61 61 15 23 55 34 55 15z m146 -68 c22 -8 44 16 45 51 1 25 3 26 6 7 11 -55 -19 -91 -58 -71 -15 8 -19 20 -17 53 l1 42 4 -38 c3 -21 11 -41 19 -44z m218 61 c11 -11 16 -32 15 -72 l-2 -57 -6 57 c-7 66 -22 88 -49 72 -9 -6 -17 -22 -17 -35 0 -18 7 -25 30 -30 23 -5 26 -7 13 -13 -27 -12 -58 11 -58 42 0 49 42 69 74 36z m166 11 c0 -3 -12 -10 -26 -15 -32 -12 -29 -39 6 -57 22 -11 23 -13 5 -13 -40 0 -61 50 -33 78 12 12 48 17 48 7z m165 -19 c30 -45 -16 -91 -61 -61 -28 18 -31 41 -7 67 22 25 49 23 68 -6z m133 -54 c11 2 19 17 23 43 5 41 15 34 21 -15 5 -41 33 -31 36 13 4 42 22 41 22 -1 0 -43 -14 -55 -65 -57 -54 -2 -75 13 -75 54 0 45 15 46 18 1 3 -32 7 -41 20 -38z m-70 -99 c-169 -2 -448 -2 -620 0 -172 1 -34 2 307 2 341 0 482 -1 313 -2z m-766 -49 c13 -8 9 -70 -8 -137 -31 -125 -68 -126 -61 -2 3 39 6 77 8 85 3 11 -6 16 -36 18 l-41 3 4 -101 c5 -115 -6 -129 -40 -52 -15 32 -22 68 -22 117 l-1 70 45 6 c45 7 137 2 152 -7z m422 -45 c-2 -40 -10 -69 -33 -110 -59 -107 -86 -98 -57 18 37 145 93 203 90 92z m113 28 c12 -17 25 -45 29 -62 12 -51 17 -50 32 1 17 59 37 84 69 84 22 0 24 -3 18 -32 -20 -92 -79 -208 -106 -208 -30 0 -99 148 -99 212 0 49 26 51 57 5z m302 14 c20 -37 -65 -231 -102 -231 -28 0 34 210 70 238 21 15 20 16 32 -7z m226 5 c16 -11 19 -26 19 -82 0 -86 -17 -140 -47 -148 -12 -3 -44 -6 -70 -6 -46 0 -49 2 -63 36 -16 38 -21 181 -7 194 21 21 142 25 168 6z m-1414 -21 c40 -13 82 -33 93 -44 19 -20 19 -21 1 -40 -10 -12 -33 -23 -51 -27 -19 -3 -34 -9 -34 -13 0 -3 20 -19 45 -36 24 -16 45 -34 45 -39 0 -18 -122 2 -178 31 -74 37 -78 57 -17 84 26 12 43 24 39 28 -5 4 -26 19 -46 35 -21 15 -38 31 -38 37 0 17 67 9 141 -16z m586 -10 c1 -19 3 -52 5 -72 2 -29 -5 -49 -30 -85 -18 -27 -37 -48 -42 -48 -16 0 -11 72 10 134 17 51 45 106 53 106 1 0 3 -16 4 -35z"/>
 <path d="M1252 571 c-8 -4 -12 -19 -10 -32 2 -18 9 -24 28 -24 28 0 39 27 20 50 -14 17 -20 18 -38 6z"/>
 <path d="M1550 273 c0 -32 -3 -68 -6 -80 -6 -22 -3 -23 41 -23 l48 0 -7 38 c-3 20 -6 56 -6 80 0 41 -1 42 -35 42 l-35 0 0 -57z"/>
 </g>
<g id="layer120" fill="#5b9bd1" stroke="none">
 <path d="M0 365 l0 -365 890 0 890 0 0 365 0 365 -890 0 -890 0 0 -365z m314 209 c23 -23 19 -51 -10 -70 -19 -13 -28 -14 -37 -5 -8 8 -6 11 10 11 41 0 54 50 16 64 -27 11 -42 -14 -46 -72 l-3 -57 -2 61 c-2 62 8 84 39 84 10 0 25 -7 33 -16z m137 -61 c10 -3 19 -10 19 -15 0 -7 -36 -3 -47 6 -3 2 -5 71 -2 81 1 6 4 -7 6 -29 3 -27 10 -40 24 -43z m159 68 c0 -5 -7 -8 -16 -7 -21 1 -39 -27 -31 -48 7 -18 42 -22 53 -4 4 6 11 25 15 42 l7 31 1 -37 c1 -29 -4 -41 -23 -53 -45 -30 -91 16 -61 61 15 23 55 34 55 15z m146 -68 c22 -8 44 16 45 51 1 25 3 26 6 7 11 -55 -19 -91 -58 -71 -15 8 -19 20 -17 53 l1 42 4 -38 c3 -21 11 -41 19 -44z m218 61 c11 -11 16 -32 15 -72 l-2 -57 -6 57 c-7 66 -22 88 -49 72 -9 -6 -17 -22 -17 -35 0 -18 7 -25 30 -30 23 -5 26 -7 13 -13 -27 -12 -58 11 -58 42 0 49 42 69 74 36z m166 11 c0 -3 -12 -10 -26 -15 -32 -12 -29 -39 6 -57 22 -11 23 -13 5 -13 -40 0 -61 50 -33 78 12 12 48 17 48 7z m165 -19 c30 -45 -16 -91 -61 -61 -28 18 -31 41 -7 67 22 25 49 23 68 -6z m133 -54 c11 2 19 17 23 43 5 41 15 34 21 -15 5 -41 33 -31 36 13 4 42 22 41 22 -1 0 -43 -14 -55 -65 -57 -54 -2 -75 13 -75 54 0 45 15 46 18 1 3 -32 7 -41 20 -38z m-70 -99 c-169 -2 -448 -2 -620 0 -172 1 -34 2 307 2 341 0 482 -1 313 -2z m-766 -49 c13 -8 9 -70 -8 -137 -31 -125 -68 -126 -61 -2 3 39 6 77 8 85 3 11 -6 16 -36 18 l-41 3 4 -101 c5 -115 -6 -129 -40 -52 -15 32 -22 68 -22 117 l-1 70 45 6 c45 7 137 2 152 -7z m422 -45 c-2 -40 -10 -69 -33 -110 -59 -107 -86 -98 -57 18 37 145 93 203 90 92z m113 28 c13 -18 26 -47 29 -65 10 -48 19 -46 33 7 13 52 51 97 74 88 13 -5 36 -48 64 -116 8 -22 11 -19 32 37 25 69 54 95 70 63 14 -26 -30 -155 -69 -201 l-30 -35 -25 30 c-13 16 -30 42 -36 57 -12 29 -29 38 -29 15 0 -17 -59 -97 -71 -97 -30 0 -99 147 -99 212 0 49 26 51 57 5z m528 19 c16 -11 19 -26 19 -82 0 -86 -17 -140 -47 -148 -12 -3 -44 -6 -70 -6 -46 0 -49 2 -63 36 -16 38 -21 181 -7 194 21 21 142 25 168 6z m-1414 -21 c40 -13 82 -33 93 -44 19 -20 19 -21 1 -40 -10 -12 -33 -23 -51 -27 -19 -3 -34 -9 -33 -13 0 -3 21 -19 47 -36 26 -16 46 -34 44 -40 -5 -16 -95 -7 -153 15 -101 40 -114 70 -43 102 25 11 42 23 38 27 -5 4 -26 19 -46 35 -21 15 -38 31 -38 37 0 17 67 9 141 -16z m586 -10 c1 -19 3 -52 5 -72 2 -29 -5 -49 -30 -85 -18 -27 -37 -48 -42 -48 -16 0 -11 72 10 134 17 51 45 106 53 106 1 0 3 -16 4 -35z"/>
 <path d="M1252 571 c-8 -4 -12 -19 -10 -32 2 -18 9 -24 28 -24 28 0 39 27 20 50 -14 17 -20 18 -38 6z"/>
 <path d="M1550 273 c0 -32 -3 -68 -6 -80 -6 -22 -3 -23 41 -23 l48 0 -7 38 c-3 20 -6 56 -6 80 0 41 -1 42 -35 42 l-35 0 0 -57z"/>
 </g>
<g id="layer121" fill="#a09ea1" stroke="none">
 <path d="M0 365 l0 -365 890 0 890 0 0 365 0 365 -890 0 -890 0 0 -365z m314 209 c23 -23 19 -51 -10 -70 -19 -13 -28 -14 -37 -5 -8 8 -6 11 10 11 41 0 54 50 16 64 -27 11 -42 -14 -46 -72 l-3 -57 -2 61 c-2 62 8 84 39 84 10 0 25 -7 33 -16z m137 -61 c10 -3 19 -10 19 -15 0 -7 -36 -3 -47 6 -3 2 -5 71 -2 81 1 6 4 -7 6 -29 3 -27 10 -40 24 -43z m159 68 c0 -5 -7 -8 -16 -7 -21 1 -39 -27 -31 -48 7 -18 42 -22 53 -4 4 6 11 25 15 42 l7 31 1 -37 c1 -29 -4 -41 -23 -53 -45 -30 -91 16 -61 61 15 23 55 34 55 15z m146 -68 c22 -8 44 16 45 51 1 25 3 26 6 7 11 -55 -19 -91 -58 -71 -15 8 -19 20 -17 53 l1 42 4 -38 c3 -21 11 -41 19 -44z m218 61 c11 -11 16 -32 15 -72 l-2 -57 -6 57 c-7 66 -22 88 -49 72 -9 -6 -17 -22 -17 -35 0 -18 7 -25 30 -30 23 -5 26 -7 13 -13 -27 -12 -58 11 -58 42 0 49 42 69 74 36z m166 11 c0 -3 -12 -10 -26 -15 -32 -12 -29 -39 6 -57 22 -11 23 -13 5 -13 -40 0 -61 50 -33 78 12 12 48 17 48 7z m165 -19 c30 -45 -16 -91 -61 -61 -28 18 -31 41 -7 67 22 25 49 23 68 -6z m133 -54 c11 2 19 17 23 43 5 41 15 34 21 -15 5 -41 33 -31 36 13 4 42 22 41 22 -1 0 -43 -14 -55 -65 -57 -54 -2 -75 13 -75 54 0 45 15 46 18 1 3 -32 7 -41 20 -38z m-70 -99 c-169 -2 -448 -2 -620 0 -172 1 -34 2 307 2 341 0 482 -1 313 -2z m-766 -49 c13 -8 9 -70 -8 -137 -31 -125 -68 -126 -61 -2 3 39 6 77 8 85 3 11 -6 16 -36 18 l-41 3 4 -101 c5 -115 -6 -129 -40 -52 -15 32 -22 68 -22 117 l-1 70 45 6 c45 7 137 2 152 -7z m269 4 c3 -31 -3 -66 -18 -108 -18 -49 -69 -130 -82 -130 -24 0 -101 163 -101 215 0 19 5 25 20 25 15 0 28 -14 45 -52 14 -29 25 -62 25 -72 0 -29 15 -8 29 43 17 60 79 119 82 79z m154 -45 c-1 -50 -34 -130 -73 -175 -38 -44 -42 18 -8 114 44 126 81 154 81 61z m112 24 c13 -18 26 -47 29 -65 10 -48 19 -46 33 7 13 52 51 97 74 88 13 -5 36 -48 64 -116 8 -22 11 -19 32 37 25 69 54 95 70 63 14 -26 -30 -155 -69 -201 l-30 -35 -25 30 c-13 16 -30 42 -36 57 -12 29 -29 38 -29 15 0 -17 -59 -97 -71 -97 -30 0 -99 147 -99 212 0 49 26 51 57 5z m528 19 c16 -11 19 -26 19 -82 0 -86 -17 -140 -47 -148 -12 -3 -44 -6 -70 -6 -46 0 -49 2 -63 36 -16 38 -21 181 -7 194 21 21 142 25 168 6z m-1414 -21 c40 -13 82 -33 93 -44 19 -20 19 -21 1 -40 -10 -12 -33 -23 -51 -27 -19 -3 -34 -9 -33 -13 0 -3 21 -19 47 -36 26 -16 46 -34 44 -40 -5 -16 -95 -7 -153 15 -101 40 -114 70 -43 102 25 11 42 23 38 27 -5 4 -26 19 -46 35 -21 15 -38 31 -38 37 0 17 67 9 141 -16z"/>
 <path d="M1252 571 c-8 -4 -12 -19 -10 -32 2 -18 9 -24 28 -24 28 0 39 27 20 50 -14 17 -20 18 -38 6z"/>
 <path d="M1550 273 c0 -32 -3 -68 -6 -80 -6 -22 -3 -23 41 -23 l48 0 -7 38 c-3 20 -6 56 -6 80 0 41 -1 42 -35 42 l-35 0 0 -57z"/>
 </g>
<g id="layer122" fill="#76aada" stroke="none">
 <path d="M0 365 l0 -365 890 0 890 0 0 365 0 365 -890 0 -890 0 0 -365z m318 213 c17 -17 15 -63 -3 -78 -8 -7 -26 -10 -40 -8 -21 4 -25 1 -25 -18 0 -13 -4 -24 -10 -24 -17 0 -12 101 7 122 18 21 53 24 71 6z m136 -64 c24 -17 19 -25 -11 -21 -24 3 -26 7 -25 45 1 58 3 62 12 22 5 -18 15 -39 24 -46z m184 34 c-3 -36 -7 -44 -30 -52 -22 -8 -32 -6 -48 9 -39 35 -12 85 47 85 34 0 34 0 31 -42z m109 7 c-1 -40 6 -50 28 -42 9 4 15 19 15 42 0 19 5 35 11 35 6 0 9 -17 7 -41 -6 -80 -70 -80 -76 0 -2 22 1 41 6 41 6 0 10 -16 9 -35z m231 23 c14 -14 16 -128 2 -128 -5 0 -10 9 -10 20 0 14 -7 20 -22 20 -25 0 -58 27 -58 48 0 40 61 67 88 40z m162 2 c0 -5 -7 -10 -15 -10 -21 0 -37 -34 -23 -48 7 -7 18 -12 25 -12 7 0 13 -4 13 -10 0 -17 -29 -11 -50 10 -24 24 -24 29 -4 58 15 22 54 31 54 12z m174 -22 c8 -22 6 -32 -9 -48 -22 -24 -42 -25 -67 -3 -38 34 -15 86 37 81 22 -2 32 -10 39 -30z m106 -9 c0 -33 3 -40 18 -37 12 2 18 14 20 41 4 48 20 48 24 0 2 -26 8 -38 18 -38 10 0 16 12 18 38 4 49 22 48 22 -2 0 -48 -13 -59 -70 -59 -25 0 -51 5 -57 10 -15 12 -17 88 -3 88 6 0 10 -18 10 -41z m-52 -136 c-169 -2 -448 -2 -620 0 -172 1 -34 2 307 2 341 0 482 -1 313 -2z m-777 -43 c24 -13 25 -57 3 -143 -33 -132 -69 -126 -60 10 l5 81 -37 4 -38 3 4 -97 c5 -112 -6 -126 -40 -50 -15 32 -22 68 -22 117 -1 69 -1 70 29 76 48 11 135 10 156 -1z m280 -2 c3 -31 -3 -66 -18 -108 -19 -51 -62 -122 -79 -127 -24 -8 -104 155 -104 212 0 19 5 25 20 25 15 0 28 -14 45 -52 14 -29 25 -62 26 -73 0 -22 -1 -24 37 68 20 50 70 87 73 55z m159 2 c12 -7 12 -16 1 -62 -20 -79 -82 -185 -102 -172 -32 20 42 245 80 244 3 0 13 -4 21 -10z m107 -23 c13 -18 26 -47 29 -65 9 -43 18 -40 33 11 14 44 46 87 67 87 15 0 47 -52 64 -104 l13 -39 12 35 c16 47 47 100 62 105 21 7 33 -31 22 -73 -14 -54 -56 -139 -81 -161 -20 -17 -21 -17 -44 12 -13 16 -29 42 -35 57 -14 34 -25 36 -33 6 -3 -13 -18 -39 -35 -58 -29 -35 -29 -35 -50 -16 -12 11 -35 48 -51 82 -53 111 -31 207 27 121z m528 19 c16 -11 19 -26 19 -82 0 -86 -17 -140 -47 -148 -12 -3 -44 -6 -70 -6 -46 0 -49 2 -63 36 -16 38 -21 181 -7 194 21 21 142 25 168 6z m-1411 -21 c39 -13 79 -33 90 -44 19 -20 19 -21 1 -40 -10 -12 -33 -23 -51 -27 -19 -3 -34 -9 -33 -13 0 -3 21 -19 47 -36 26 -16 46 -34 44 -40 -5 -16 -95 -7 -153 15 -100 40 -114 70 -44 101 25 11 45 22 45 24 0 1 -20 15 -45 29 -94 55 -28 76 99 31z"/>
 <path d="M257 564 c-4 -4 -7 -18 -7 -31 0 -21 4 -24 28 -21 21 2 27 8 27 28 0 18 -6 26 -20 28 -12 2 -24 0 -28 -4z"/>
 <path d="M564 555 c-10 -25 4 -47 28 -43 17 2 24 11 26 31 3 23 0 27 -23 27 -14 0 -28 -7 -31 -15z"/>
 <path d="M914 556 c-8 -21 13 -46 38 -46 30 0 21 54 -10 58 -13 2 -25 -3 -28 -12z"/>
 <path d="M1244 556 c-10 -26 4 -48 28 -44 17 2 23 10 23 28 0 18 -6 26 -23 28 -13 2 -25 -3 -28 -12z"/>
 <path d="M1550 273 c0 -32 -3 -68 -6 -80 -6 -22 -3 -23 41 -23 l48 0 -7 38 c-3 20 -6 56 -6 80 0 41 -1 42 -35 42 l-35 0 0 -57z"/>
 </g>
<g id="layer123" fill="#e2d8d7" stroke="none">
 <path d="M0 365 l0 -365 890 0 890 0 0 365 0 365 -890 0 -890 0 0 -365z m318 213 c17 -17 15 -63 -3 -78 -8 -7 -26 -10 -40 -8 -21 4 -25 1 -25 -18 0 -13 -4 -24 -10 -24 -17 0 -12 101 7 122 18 21 53 24 71 6z m136 -64 c24 -17 19 -25 -11 -21 -24 3 -26 7 -25 45 1 58 3 62 12 22 5 -18 15 -39 24 -46z m184 34 c-3 -36 -7 -44 -30 -52 -22 -8 -32 -6 -48 9 -39 35 -12 85 47 85 34 0 34 0 31 -42z m109 7 c-1 -40 6 -50 28 -42 9 4 15 19 15 42 0 19 5 35 11 35 6 0 9 -17 7 -41 -6 -80 -70 -80 -76 0 -2 22 1 41 6 41 6 0 10 -16 9 -35z m231 23 c14 -14 16 -128 2 -128 -5 0 -10 9 -10 20 0 14 -7 20 -22 20 -25 0 -58 27 -58 48 0 40 61 67 88 40z m162 2 c0 -5 -7 -10 -15 -10 -21 0 -37 -34 -23 -48 7 -7 18 -12 25 -12 7 0 13 -4 13 -10 0 -17 -29 -11 -50 10 -24 24 -24 29 -4 58 15 22 54 31 54 12z m174 -22 c8 -22 6 -32 -9 -48 -22 -24 -42 -25 -67 -3 -38 34 -15 86 37 81 22 -2 32 -10 39 -30z m106 -9 c0 -33 3 -40 18 -37 12 2 18 14 20 41 4 48 20 48 24 0 2 -26 8 -38 18 -38 10 0 16 12 18 38 4 49 22 48 22 -2 0 -48 -13 -59 -70 -59 -25 0 -51 5 -57 10 -15 12 -17 88 -3 88 6 0 10 -18 10 -41z m-52 -136 c-169 -2 -448 -2 -620 0 -172 1 -34 2 307 2 341 0 482 -1 313 -2z m-777 -43 c24 -13 25 -57 3 -143 -33 -132 -69 -126 -60 10 l5 81 -37 4 -38 3 4 -97 c5 -112 -6 -126 -40 -50 -15 32 -22 68 -22 117 -1 69 -1 70 29 76 48 11 135 10 156 -1z m126 -12 c12 -13 27 -42 34 -65 12 -43 29 -58 29 -27 0 26 52 114 67 114 21 0 50 -39 65 -87 7 -24 15 -43 18 -43 3 0 14 22 24 49 20 55 48 86 71 78 19 -8 19 -25 -1 -93 -18 -63 -72 -149 -94 -149 -8 0 -28 23 -45 52 -16 29 -32 52 -35 53 -3 0 -14 -18 -24 -40 -10 -22 -28 -48 -39 -57 -18 -17 -20 -17 -48 17 -60 71 -93 220 -49 220 4 0 16 -10 27 -22z m420 -11 c13 -18 26 -47 29 -65 9 -43 18 -40 33 11 14 44 46 87 67 87 15 0 47 -52 64 -104 l13 -39 12 35 c16 47 47 100 62 105 21 7 33 -31 22 -73 -14 -54 -56 -139 -81 -161 -20 -17 -21 -17 -44 12 -13 16 -29 42 -35 57 -14 34 -25 36 -33 6 -3 -13 -18 -39 -35 -58 -29 -35 -29 -35 -50 -16 -12 11 -35 48 -51 82 -53 111 -31 207 27 121z m528 19 c16 -11 19 -26 19 -82 0 -86 -17 -140 -47 -148 -12 -3 -44 -6 -70 -6 -46 0 -49 2 -63 36 -16 38 -21 181 -7 194 21 21 142 25 168 6z m-1411 -21 c39 -13 79 -33 90 -44 19 -20 19 -21 1 -40 -10 -12 -33 -23 -51 -27 -19 -3 -34 -9 -33 -13 0 -3 21 -19 47 -36 26 -16 46 -34 44 -40 -5 -16 -95 -7 -153 15 -100 40 -114 70 -44 101 25 11 45 22 45 24 0 1 -20 15 -45 29 -94 55 -28 76 99 31z"/>
 <path d="M257 564 c-4 -4 -7 -18 -7 -31 0 -21 4 -24 28 -21 21 2 27 8 27 28 0 18 -6 26 -20 28 -12 2 -24 0 -28 -4z"/>
 <path d="M564 555 c-10 -25 4 -47 28 -43 17 2 24 11 26 31 3 23 0 27 -23 27 -14 0 -28 -7 -31 -15z"/>
 <path d="M914 556 c-8 -21 13 -46 38 -46 30 0 21 54 -10 58 -13 2 -25 -3 -28 -12z"/>
 <path d="M1244 556 c-10 -26 4 -48 28 -44 17 2 23 10 23 28 0 18 -6 26 -23 28 -13 2 -25 -3 -28 -12z"/>
 <path d="M1550 273 c0 -32 -3 -68 -6 -80 -6 -22 -3 -23 41 -23 l48 0 -7 38 c-3 20 -6 56 -6 80 0 41 -1 42 -35 42 l-35 0 0 -57z"/>
 </g>
<g id="layer124" fill="#fffefe" stroke="none">
 <path d="M0 365 l0 -365 890 0 890 0 0 365 0 365 -890 0 -890 0 0 -365z m328 181 c4 -35 -14 -56 -48 -56 -19 0 -26 -5 -26 -17 1 -10 -3 -20 -9 -23 -6 -3 -11 20 -13 57 -3 59 -2 63 25 77 35 19 66 2 71 -38z m315 5 c-1 -41 -19 -61 -52 -61 -34 0 -51 17 -51 52 0 34 41 59 79 48 22 -6 26 -12 24 -39z m353 -6 c8 -42 1 -100 -11 -98 -5 1 -11 11 -13 23 -2 13 -11 20 -27 20 -45 0 -70 47 -42 82 30 38 83 23 93 -27z m302 39 c24 -17 30 -62 10 -82 -16 -16 -63 -15 -75 1 -23 29 -23 48 2 73 28 28 33 29 63 8z m-864 -18 c-4 -17 1 -31 15 -45 27 -27 27 -31 -7 -31 -27 0 -28 2 -25 48 1 26 2 48 2 50 1 1 6 2 11 2 6 0 8 -10 4 -24z m312 1 c-6 -27 16 -63 32 -53 7 4 12 23 12 42 0 19 5 34 11 34 6 0 9 -19 7 -47 -3 -45 -5 -48 -33 -51 -36 -4 -55 18 -55 65 0 24 5 33 16 33 12 0 15 -6 10 -23z m399 13 c-3 -5 -13 -10 -20 -10 -8 0 -19 -9 -25 -21 -10 -18 -8 -22 19 -32 36 -13 41 -27 9 -27 -47 0 -74 53 -42 84 17 17 69 22 59 6z m275 -31 c0 -33 3 -40 18 -37 12 2 18 14 20 41 4 48 20 48 24 0 2 -26 8 -38 18 -38 10 0 16 12 18 38 2 20 7 37 13 37 14 0 11 -76 -3 -87 -18 -14 -111 -14 -120 0 -11 18 -10 87 2 87 6 0 10 -18 10 -41z m250 -134 c0 -13 -50 -15 -388 -15 -214 0 -492 3 -618 8 l-229 7 370 5 c816 12 865 11 865 -5z m-1553 -2 c-4 -3 -10 -3 -14 0 -3 4 0 7 7 7 7 0 10 -3 7 -7z m483 -48 c31 -37 -17 -235 -57 -235 -13 0 -15 15 -11 95 l4 95 -33 0 -32 0 3 -82 c4 -89 0 -108 -18 -108 -22 1 -65 126 -66 192 0 45 20 55 113 57 65 2 87 -1 97 -14z m126 -10 c9 -14 22 -42 29 -62 l13 -37 27 58 c15 32 34 60 42 63 29 11 58 -21 84 -92 l11 -30 13 37 c22 59 46 89 69 86 18 -3 21 -10 20 -48 0 -54 -55 -174 -86 -191 -19 -10 -25 -8 -50 22 -16 19 -31 44 -34 57 -9 32 -16 27 -45 -31 -20 -41 -30 -52 -50 -52 -20 0 -30 13 -62 75 -35 69 -53 142 -41 162 11 17 44 7 60 -17z m428 -39 c17 -32 32 -53 34 -45 13 46 44 98 62 104 29 9 57 -18 70 -66 13 -49 26 -56 35 -21 12 50 45 93 69 90 33 -5 26 -81 -16 -165 -45 -89 -61 -98 -99 -53 -16 19 -32 45 -35 58 -9 32 -16 27 -44 -31 -21 -41 -31 -52 -50 -52 -42 0 -128 197 -103 237 2 5 15 8 26 6 15 -2 31 -21 51 -62z m522 51 c4 -4 9 -32 12 -63 6 -72 -13 -161 -36 -168 -85 -23 -136 -13 -153 31 -17 44 -19 164 -3 190 12 20 21 22 93 20 44 -1 83 -5 87 -10z m-1428 -16 c68 -22 99 -39 107 -59 9 -24 -14 -51 -55 -63 l-40 -12 50 -29 c64 -36 66 -58 6 -58 -54 0 -175 43 -198 70 -24 29 -14 45 40 69 26 11 42 20 36 21 -19 0 -95 60 -89 70 10 16 78 11 143 -9z"/>
 <path d="M258 546 c-5 -27 11 -40 38 -29 22 8 13 47 -12 51 -16 2 -23 -3 -26 -22z"/>
 <path d="M570 555 c-10 -12 -10 -18 0 -30 17 -21 37 -19 45 5 12 37 -20 55 -45 25z"/>
 <path d="M924 556 c-9 -24 4 -48 23 -44 12 2 18 12 18 28 0 29 -32 41 -41 16z"/>
 <path d="M1246 553 c-4 -9 0 -23 9 -32 13 -14 17 -14 32 1 13 14 14 20 3 32 -16 21 -36 20 -44 -1z"/>
 <path d="M1552 257 l-2 -75 36 -7 c20 -3 37 -5 38 -3 1 2 0 36 -2 76 -3 62 -6 72 -22 72 -10 0 -25 2 -33 5 -11 5 -14 -8 -15 -68z"/>
 </g>

</svg>