<?xml version="1.0" encoding="UTF-8"?>
<!DOCTYPE svg PUBLIC "-//W3C//DTD SVG 1.1//EN" "http://www.w3.org/Graphics/SVG/1.1/DTD/svg11.dtd">
<!-- Creator: CorelDRAW 2017 -->
<svg xmlns="http://www.w3.org/2000/svg" xml:space="preserve" width="178.929mm" height="59.0896mm" version="1.1" style="shape-rendering:geometricPrecision; text-rendering:geometricPrecision; image-rendering:optimizeQuality; fill-rule:evenodd; clip-rule:evenodd"
viewBox="0 0 19545.27 6454.64"
 xmlns:xlink="http://www.w3.org/1999/xlink">
 <defs>
  <style type="text/css">
   <![CDATA[
    .fil8 {fill:#E5A71B}
    .fil31 {fill:#DFA323}
    .fil24 {fill:#D97F23}
    .fil7 {fill:#D25F26}
    .fil14 {fill:#DE913D}
    .fil32 {fill:#B63822}
    .fil22 {fill:#D5743D}
    .fil13 {fill:#B94529}
    .fil17 {fill:#CB7037}
    .fil18 {fill:#BF4A30}
    .fil42 {fill:#D6904C}
    .fil29 {fill:#CC5970}
    .fil37 {fill:#D69665}
    .fil30 {fill:#AF9D2A}
    .fil33 {fill:#B16A73}
    .fil4 {fill:#C4358A}
    .fil12 {fill:#C25C99}
    .fil39 {fill:#B0678F}
    .fil19 {fill:#B6418B}
    .fil6 {fill:#8A3165}
    .fil3 {fill:#A673AF}
    .fil27 {fill:#A25B9F}
    .fil5 {fill:#8BA632}
    .fil44 {fill:#86A533}
    .fil36 {fill:#8BA84B}
    .fil10 {fill:#9A5CA0}
    .fil11 {fill:#80AFDE}
    .fil16 {fill:#676767}
    .fil35 {fill:#78A368}
    .fil41 {fill:#73A4A3}
    .fil23 {fill:#8A4290}
    .fil15 {fill:#719D5C}
    .fil0 {fill:#883F8E}
    .fil40 {fill:#845BA1}
    .fil43 {fill:#6CA6CE}
    .fil34 {fill:#728AC5}
    .fil38 {fill:#7972AF}
    .fil25 {fill:#5C9242}
    .fil2 {fill:#62A2D6}
    .fil21 {fill:#649DD4}
    .fil20 {fill:#619CD0}
    .fil1 {fill:#5D8AAC}
    .fil9 {fill:#547892}
    .fil28 {fill:#497FA5}
    .fil26 {fill:#3E6D8E}
   ]]>
  </style>
 </defs>
 <g id="Layer_x0020_1">
  <metadata id="CorelCorpID_0Corel-Layer"/>
  <g id="_1887000096800">
   <path class="fil0" d="M13283.32 1292.08c-9.69,-18.01 4.3,-19.5 14.59,-58.44l45.58 -219.91c36.31,-189.22 77.16,-442.29 82.99,-637.29 1.75,-58.41 1.33,-124.96 -4.49,-182.84 -8.18,-81.5 -20.1,-88.1 -39.04,-141.83 -17.76,-36.7 -97.86,-59.48 -159.02,-28.73 -257.42,129.43 -578.62,719.73 -703.26,961.99 -199.23,387.2 -418.3,923.83 -502.24,1402.38 -46.14,263.07 -61.3,646.36 201.73,696.37 256.48,48.76 454.02,-255.13 546.24,-401.25 210.87,-334.09 422.22,-947.46 516.92,-1390.45z"/>
   <path class="fil1" d="M10217.28 1266.58l6.43 26.86c35.99,107.19 60.76,239.14 94.46,353.49 116.23,394.41 435.97,1352.71 856.17,1436.56 150.79,30.09 253.03,-52.62 297.95,-151.25 51.08,-112.16 51.11,-275.41 36.41,-411.37 -67.98,-628.66 -447.47,-1457.19 -770.05,-1978.58 -84.32,-136.29 -301.55,-450.18 -426.2,-496.65l14.51 31.31c0.71,1.41 2.14,3.76 2.86,5.22l25.56 94.98c9,51.42 9.51,105.63 8.43,162.49 -1.98,104.79 -14.79,223.65 -27.99,327.84 -4.88,38.56 -78.42,557.01 -118.54,599.1z"/>
   <path class="fil2" d="M8224.14 1306.92c-8.62,-26.29 -6.1,-10.74 -15.13,-39.89 -41.26,-187.82 -79.74,-379.93 -108.25,-584.82 -27.64,-198.52 -60.38,-455.09 16.71,-629.5 -127.98,41.19 -335.67,364.39 -420.2,491.89 -306.22,461.83 -950.54,1865.29 -735.27,2377.28 44.95,106.91 144.66,185.68 288,163.96 461.07,-69.84 825.79,-1235.01 937.44,-1690.45 3.81,-15.53 5.87,-30.3 9.86,-45.03 11.83,-43.73 -0.03,-28.41 26.84,-43.44z"/>
   <path class="fil3" d="M15293.4 1265.95l-0.29 27.88c37.83,110.29 64.43,242.63 97.97,357.09 103.43,352.94 528.39,1650.6 1029.69,1411.72 176.91,-84.3 177.93,-353.78 160.29,-530.71 -47.38,-475.09 -265.01,-999.87 -440.22,-1380.38 -103.86,-225.56 -501.82,-976.86 -735.93,-1092.81l23.98 132.73c14.76,151.2 -1.55,340.14 -22.03,488.39 -10.19,73.8 -87.82,561.64 -113.46,586.09z"/>
   <path class="fil4" d="M24.65 1180.77c41.11,-39.36 30.96,-61.37 140.72,-93.34 307.83,-89.66 1275.51,-39.17 1544.39,34.91l17.88 -2.91c309.52,-133.03 821.84,-406.32 1077.93,-601.61 81.25,-61.96 474.16,-328.77 229.55,-447.67 -172.44,-83.82 -554.99,-32.44 -752.31,-1.18 -537.66,85.21 -1430.69,352.45 -1876.59,648.82 -134.09,89.12 -377.08,245.01 -381.57,462.97z"/>
   <path class="fil5" d="M3620.36 2677.09c58.27,-47.62 46.1,-57.02 146.56,-97.15 164.23,-65.61 407.36,-110.03 580.46,-139.94l11.19 0.88c9.91,-80.18 59.07,-217.61 78.29,-309.58 75.12,-359.37 109.29,-688.81 121.92,-1061.08 9.34,-275.29 24.62,-1462.73 -377.07,-923.8 -183.9,246.74 -354.88,781.96 -441.11,1140.59 -74.33,309.16 -220.04,1074.23 -120.23,1390.09z"/>
   <path class="fil5" d="M5446.84 2379.61l9.89 20.26c94.35,-16.06 771.31,72.44 679.93,405.54 -22.4,81.69 -112.51,136.83 -189.41,173.36l8.12 6.32c410.18,-13.89 249.09,-1080.23 204.45,-1331.7 -78.69,-443.45 -220.06,-930.69 -397.36,-1295.76 -51.05,-105.13 -284.65,-545.43 -412.2,-254.4 -163.29,372.62 -73.06,1479.52 14.17,1928.21 23.97,123.29 57.29,232.98 82.42,348.16z"/>
   <path class="fil6" d="M3042.01 2002.55c-63.71,33.75 -49.35,48.87 -173.26,85.28 -68.04,20 -147.46,32.15 -223.23,36.07 -296.43,15.33 -633.38,-39.13 -922.4,-104.34l-411.2 -102.07c-187.17,68.47 -1626.12,804.37 -1212.2,1004.61 378.83,183.25 1607.25,-188.47 1955.76,-324.38 193.78,-75.56 356.76,-144.32 542.22,-243.28 124.63,-66.5 386.1,-233.72 444.31,-351.89z"/>
   <path class="fil7" d="M17197.66 2788.11c-22.48,-123.28 99.2,-157.49 240.4,-196.9l272.23 -64.13c19.62,-3.6 27.43,-4.78 47.62,-6.48 6.77,-0.58 22.54,-1.25 27.18,-1.7l34.85 -5.33c-9.51,-7.8 -19.86,2.85 -7.92,-55.81 63.07,-310.03 61.42,-668.02 46.38,-981.03 -8.52,-177.3 -72.72,-829.86 -136.99,-967.1 12.85,-15.24 -19.6,-16.19 22.54,-12.05l-27.19 -11.02c-64.36,5.95 -181.07,-40.01 -225.61,-65.55 -33.13,-19 -58.36,-39.73 -79.28,-68.33 -33.83,-46.26 -21.07,-59.81 -28.43,-112.74 -79.24,52.68 -181.74,468.67 -199.52,552.76 -111.14,526.06 -198.6,1396.78 -22.31,1927.38 3.71,11.17 8.3,25.65 12.16,33.99 11.93,25.81 7.19,19.11 23.9,34.03z"/>
   <path class="fil8" d="M18881.44 440.53c26.14,-0.72 8.31,-5.3 21.31,9.85 -122.94,444.05 -168.15,1030.87 -156.37,1507.5 4.56,184.61 36.51,336.83 50.31,509.34 106.46,0.11 297.9,37.05 387.16,69.99 124.6,45.99 217.77,99.72 240.73,238.52 150.3,-254.15 129.98,-1011.7 97.96,-1344.78 -21.17,-220.24 -51.5,-430.66 -97.44,-641.36 -45.83,-210.23 -109.26,-374.74 -177.07,-558.82 4.41,84.18 -81.39,116.88 -151.14,144.75 -41.45,16.56 -197.37,54.43 -215.47,65.01z"/>
   <path class="fil9" d="M8209.01 1267.02c9.03,29.15 6.51,13.6 15.13,39.89 5.78,104.88 96.41,383.04 130.87,491.06 49.57,155.38 104.11,310.3 163.56,454.9 110.96,269.92 305.54,634.24 486.05,752.59 29.57,-21.34 6.98,4.17 3.09,-14.99 -2.99,-14.76 -2.52,-7.86 -6.89,-15.83 -66.62,-121.55 -71.26,-177.83 -69.45,-341.62 4.88,-441.28 274.11,-1050.69 283.81,-1124.55 -94.39,-267.89 -251.97,-559.23 -380.7,-791.48 -99.5,-179.53 -365.22,-597.28 -522.07,-667.28l-12.37 20.78c26.22,-2.12 25.76,3.42 35.26,42.61 54.25,223.76 -12.81,646.47 -55.82,873.19 -5.56,29.3 -45.55,254.37 -70.48,280.72z"/>
   <path class="fil10" d="M13283.32 1292.08l140.62 495.41c54.11,164.59 105.04,313.36 168.67,469.21 86.33,211.48 318.86,676.53 510.68,766.54 -21.31,-48.4 -36.62,-25.89 -78.35,-154.03 -19.26,-59.13 -24.13,-135.92 -23.49,-208.43 2.52,-281.77 83.64,-530.25 158.1,-787.93 18.9,-65.42 97.14,-294.68 126.94,-341.16l4 -22.95 -178.53 -399.8c-116.43,-254.94 -524.71,-984.23 -729,-1057.16 18.94,53.73 30.86,60.33 39.04,141.83 5.82,57.87 6.24,124.43 4.49,182.84 -5.82,194.99 -46.68,448.07 -82.99,637.29l-45.58 219.91c-10.29,38.94 -24.28,40.43 -14.59,58.44z"/>
   <path class="fil11" d="M9220.34 1508.49c17.95,71.08 40.17,111.17 60.96,169.52l114.69 344.59c69.11,238.07 136.49,546.99 100.97,794.65 -11.34,79.03 -45.77,111.98 -59.65,177.87 87.65,-34.75 244.52,-275.03 284.65,-342.67 142.54,-240.24 280.92,-599.21 365.42,-873.38 49.05,-159.13 87.25,-328.01 136.34,-485.64l-6.43 -26.86c-37.43,-193.09 -85.59,-386.97 -108.71,-594.2 -12.22,-109.64 -25.11,-209.47 -26.29,-323.72 -1.21,-118.44 -3.23,-218.93 54.36,-303.65 -258.93,95.6 -699.18,967.16 -825.43,1252.7 -17.24,38.99 -29.43,66.7 -45.41,103.7l-45.45 107.08z"/>
   <path class="fil12" d="M14290.49 1508.74l-4 22.95 24.96 34.62c58.75,126.23 175.54,524.27 206.05,646.34 30.56,122.3 50.91,250.93 58.42,392.27 7.36,138.78 4.23,218.7 -50.65,339.04 -10.08,22.12 -4.77,-6.78 -8.06,18.97l6.65 27.05c375.85,-316.79 612.09,-1089.32 769.24,-1696.15l0.29 -27.88c-39.85,-84.08 -96.47,-472 -112.91,-597.39 -24.27,-185.13 -68.34,-484.65 29.64,-625.54 -218.14,77.92 -610.27,787.42 -735.42,1055.17l-184.21 410.55z"/>
   <path class="fil13" d="M17819.94 2513.57l-34.85 5.33c-4.64,0.46 -20.41,1.13 -27.18,1.7 -20.19,1.69 -28,2.87 -47.62,6.48l-272.23 64.13c-141.21,39.4 -262.88,73.61 -240.4,196.9 5.7,64.75 124.99,249.36 312.33,189.4 64.43,-20.61 86.13,-2.75 150.86,10.99 397.01,84.3 909.64,126.53 1314.33,67.05 188.06,-27.65 441.09,-84.89 449.39,-279.8 -22.96,-138.8 -116.13,-192.54 -240.73,-238.52 -89.26,-32.93 -280.7,-69.88 -387.16,-69.99 -325.44,-33.79 -667.24,5.43 -976.76,46.34z"/>
   <path class="fil14" d="M1709.76 1122.34c-34.37,25.44 -120.77,57.68 -167.28,74.94l-337.09 126.52c-160.61,55.79 -404.08,112.98 -566.9,135.01 -229.09,30.99 -254.3,-0.08 -422.5,-24.01 39.15,67.92 409.72,230.39 513.69,274.36 175.18,74.1 396.5,154.13 582.23,204.57 396.66,-165.13 810.2,-349.9 1241.88,-385.47 74.14,-6.11 189.38,-9.83 260.99,3.44 130.66,24.22 153.21,66.05 203.02,78.58 -59.66,-128.42 -433.73,-272.02 -574.64,-319.26 -115.88,-38.85 -225.22,-68.72 -347.75,-96.35 -95.27,-21.46 -291.96,-47.11 -367.78,-75.25l-17.88 2.91z"/>
   <path class="fil15" d="M4358.56 2440.88l-11.19 -0.88c-3.55,55.91 -89.66,251.8 -117.78,298.21 -35.59,58.75 -123.05,198.82 -206.07,210.25l-0.91 11.01c49.18,-1.07 169.61,32.85 223.33,43.73 417.15,84.5 1073.55,123.44 1488.86,37.69l220.54 -55.79 -8.12 -6.32c-61.14,-1.34 -54.98,20.6 -125.54,-7.78 -181.64,-73.02 -346.73,-445.35 -364.98,-571.12l-9.89 -20.26c3.72,24.3 -50.75,7.97 -109.87,5.09l-440.76 2.06c-172.06,9.6 -374.46,22.49 -537.64,54.11z"/>
   <path class="fil16" d="M16647 5407.74l212.92 0.79c1.29,-210.2 -0.67,-420.59 -0.84,-629.84 -0.14,-164.14 17.42,-366.54 260.43,-368.41 101.83,-0.78 175.26,42.11 214.94,97.5 60.35,84.21 55.26,146.09 55.16,261.66 -0.17,208.2 -7.15,429.96 0.86,636.46l215.79 1.7c-13.97,-192.95 -1.15,-434.22 -1.23,-628.92 -0.07,-171.89 21.06,-367.85 263.47,-368.27 106.49,-0.19 167.56,42.94 210.75,101.59 53.63,72.84 53.49,153.44 53.42,257.42 -0.16,210.83 -5.48,429.49 1.19,639.38l214.39 -0.68c-4.1,-184.65 -0.61,-371.8 -0.6,-555.45 0.01,-192.17 2.67,-333.18 -97.35,-465.2 -140.21,-185.1 -407,-233.4 -598.51,-130.74 -103.31,55.38 -120.35,105.97 -165.98,126.68 -94.86,-186.13 -548.18,-283.21 -746.97,5.65 -98.31,142.88 -94.53,268.17 -94.53,463.61 0.01,164.09 -13.69,399.95 2.69,555.05z"/>
   <path class="fil16" d="M10884.55 4510.7l0 -222.98c-171.15,-69.25 -325.25,-119.42 -533.42,-43.81 -156.39,56.8 -273.33,173.25 -336.96,310.76 -148.85,321.74 -6.74,728.08 344.14,844.56 384.15,127.52 737.16,-113.94 801.14,-430.92 34.4,-170.44 13.55,-1033.78 16.88,-1281.5l-217.17 -0.9c-4.57,326.27 -0.64,655.27 -0.63,981.8 0.01,169.15 11.92,289.42 -77.95,410.79 -156.9,211.9 -508.29,210.68 -647.02,-35.61 -120.66,-214.21 -46.61,-565.9 260.63,-627.2 190.32,-37.96 267.19,40.36 390.35,95.01z"/>
   <path class="fil16" d="M1515.12 4285.97l-0.76 223.41c37.17,-10.32 96.14,-57.42 162.68,-79 403.4,-130.82 664.81,271.57 497.55,598.94 -52.53,102.82 -152.76,186.43 -297.64,199.6 -163.93,14.9 -276.34,-47.7 -350.09,-136.39 -87.13,-104.78 -86.54,-253.02 -86.52,-415.57 0,-329.5 -0.07,-659.05 -0.26,-988.52l-218.01 -2.32c6.26,260.64 -17.71,1095.27 15.18,1270.2 100.89,536.55 880.77,670.17 1144.62,141.68 78.1,-156.42 79,-374.88 7.64,-535.08 -64.16,-144.04 -186.19,-255.47 -332.91,-314.21 -198.83,-79.61 -376.14,-33.48 -541.47,37.25z"/>
   <path class="fil17" d="M1311.92 1913.74l0 3.75 411.2 102.07c289.02,65.21 625.97,119.67 922.4,104.34 75.78,-3.92 155.19,-16.07 223.23,-36.07 123.9,-36.41 109.55,-51.53 173.26,-85.28 48.15,-44.69 81.71,-122.89 72.8,-209.89 -6.14,-60.05 -55.67,-166.55 -97,-182.36 -49.81,-12.53 -72.37,-54.37 -203.02,-78.58 -71.61,-13.27 -186.86,-9.55 -260.99,-3.44 -431.67,35.57 -845.21,220.34 -1241.88,385.47z"/>
   <path class="fil16" d="M6249.11 5342.86l1.1 -213.27c-34.83,5.59 -93.53,50.6 -141.78,69.4 -481.58,187.67 -759.71,-449.58 -411.47,-716.82 169.62,-130.16 457.87,-106.41 579.32,125.11 83.7,159.54 40.81,589.17 48.18,801l215.21 0.37c11.93,-167.82 5.79,-404.07 0.81,-574.49 -18.62,-637.16 -644.36,-761.03 -992.56,-500.83 -358.5,267.9 -284.83,943.67 223.07,1074.99 140.85,36.42 378.78,18.94 478.11,-65.45z"/>
   <path class="fil18" d="M17473.07 132.44c49.75,1.39 71.94,-2.75 112.58,37 25.15,24.61 42.33,60.34 56.39,90.62 34.26,73.8 53.32,143.6 74.73,226.51l27.19 11.02c206.57,22.9 374.02,28.65 586.8,17.4 199.76,-10.55 362.8,-45.19 550.7,-74.45 18.1,-10.57 174.01,-48.45 215.47,-65.01 69.75,-27.87 155.55,-60.57 151.14,-144.75 -31.85,-95.2 -251.98,-135.46 -372.01,-159.26 -152.82,-30.3 -311.18,-51.08 -471.54,-63.19 -176.02,-13.29 -839.17,-30.69 -931.42,124.11z"/>
   <path class="fil16" d="M14788.37 4414.67c236.19,-58.68 429.9,126.89 462.38,318.85 41.11,242.92 -106.03,439.12 -292.14,482.94 -501.97,118.19 -681.45,-674.75 -170.24,-801.78zm17.78 -204.76c-316.07,30.74 -586.07,318.15 -545.52,680.04 35.81,319.57 325.62,575.02 685.15,536.19 312.64,-33.76 574.96,-319.33 532.98,-681.11 -36.34,-313.24 -315.07,-569.9 -672.61,-535.12z"/>
   <path class="fil4" d="M3345.77 6454.29l71.28 -24.33c29.61,-0.55 89.88,1.25 116.06,-3.22 28.87,-4.94 9.39,-2.06 22.16,-6.62l80.33 -12.49c-2,-1.52 -5.43,-5.63 -6.67,-3.53l-22.15 -7.6c-10.97,-1.93 -31.94,-0.98 -43.9,-1.09l0 -70.1c9.34,-0.1 27.31,0.84 35.54,-0.12 20.8,-2.44 -2.49,1.87 16.35,-2.68 20.32,-4.9 9.74,-0.76 21.13,-8.56 -2.08,-1.44 -5.64,-5.27 -6.88,-3.12l-30.48 -8.21c-57.87,-10.25 -301.07,-25.07 -326.2,-9.26 34.68,-0.19 69,-1.22 103.62,-1.65l83.38 -2.18c29.65,-7.6 14.32,2.67 32.45,-16.43l-3491.8 1.91 1.77 178.18 3344 1.1z"/>
   <path class="fil19" d="M14103.3 3023.25c51,44.5 133.88,74.52 223.23,64.51 85.92,-9.62 146.88,-59.15 197.33,-97.78l-6.65 -27.05c3.29,-25.76 -2.02,3.15 8.06,-18.97 54.88,-120.34 58.01,-200.26 50.65,-339.04 -7.5,-141.34 -27.85,-269.97 -58.42,-392.27 -30.51,-122.07 -147.3,-520.11 -206.05,-646.34l-24.96 -34.62c-29.8,46.48 -108.04,275.74 -126.94,341.16 -74.45,257.68 -155.57,506.16 -158.1,787.93 -0.64,72.51 4.23,149.3 23.49,208.43 41.74,128.14 57.04,105.63 78.35,154.03z"/>
   <path class="fil20" d="M9004.62 3005.47c40.67,43.77 134.96,88.32 225.92,85.47 81.79,-2.58 179.28,-54.68 206.76,-95.82 13.88,-65.89 48.31,-98.84 59.65,-177.87 35.52,-247.66 -31.85,-556.58 -100.97,-794.65l-114.69 -344.59c-20.8,-58.35 -43.02,-98.44 -60.96,-169.52l-5.16 0c-9.7,73.86 -278.93,683.27 -283.81,1124.55 -1.81,163.79 2.83,220.08 69.45,341.62 4.37,7.96 3.9,1.07 6.89,15.83 3.89,19.16 26.48,-6.36 -3.09,14.99z"/>
   <path class="fil16" d="M7758.06 5408.12l213.91 0.33c-3.24,-216.24 -0.32,-433.26 -0.39,-648.26 -0.08,-203.1 96.22,-347.52 296.92,-349.81 200.6,-2.29 303.96,139.92 303.97,340.42 0.01,212.99 -9.39,447.03 1.15,657.41l214.18 0.56c-2.29,-222.23 24.74,-640.89 -22.23,-830.77 -122.65,-495.89 -842.63,-502.53 -985.16,-9.39 -36.16,125.08 -33.28,686.06 -22.35,839.53z"/>
   <path class="fil21" d="M11190.97 6453.76l2589.5 0.87c10.78,-8.83 90.37,-9.6 138.75,-30.26 2.5,-1.07 -6.22,-1.55 20.22,-8.94 30.3,-8.45 154.56,-8.91 192.66,-8.96l-72.24 7.54c0,-37.51 -14.27,-120.25 26.85,-91.93l-71.38 -3.11c20.11,-21.66 -0.48,-11.97 31.89,-20.04 30.98,-7.71 19.04,2.53 21.73,4.7 -20.16,-29.54 1.56,27.8 -10.77,-30.62l-3023.54 1.35 1.44 2.63 154.88 0c-36.79,45.74 -68.76,35.45 -73.92,18.5 31.27,0 46.18,-2.03 60.66,12.9l13.28 107.24 -92.51 0c7.29,-9.66 6.79,-14.48 36.34,-11.83 96.33,8.65 27.18,-5.69 56.17,30.32l-101.71 -9.15c7.82,0 54.09,-1.89 56.81,-1.47 65.86,10.16 25.7,-13.36 44.9,30.26z"/>
   <path class="fil22" d="M24.65 1180.77c0.97,133.22 132.86,240.7 191.35,254.03 168.2,23.93 193.41,55 422.5,24.01 162.81,-22.03 406.29,-79.23 566.9,-135.01l337.09 -126.52c46.51,-17.26 132.92,-49.49 167.28,-74.94 -268.88,-74.08 -1236.56,-124.57 -1544.39,-34.91 -109.76,31.97 -99.61,53.98 -140.72,93.34z"/>
   <path class="fil23" d="M15032.57 6453.6l2654.87 0.29 -144.82 -8.51c2.15,-1.21 5.87,-5.72 7.31,-3.47l31.78 -10.14c14.43,-2.63 18.38,0.93 35.03,-3.6 -24.11,-0.54 -48.1,-0.94 -72.2,-1.26l-53.4 -3.45c-19.51,-4.46 -9.98,-1.1 -20.13,-7.78 9.45,-24.42 -0.85,-13.21 27.36,-19.44 5.54,-1.23 36.56,-0.58 44.64,-0.69l0.34 -79.24c-44.51,-0.75 -112.22,5.16 -146.56,-9.42l86.4 -15.47c-2.17,-0.58 -5.35,-2.04 -7.07,-2.57 -1.68,-0.52 -4.7,-1.59 -6.84,-2.82 47.47,-0.55 190.25,7.01 218.22,-12.38l-2726.53 0.8c1.35,28.64 80.21,18.92 106.81,20.11l-62.72 22.79c14.69,20.9 9.13,42.24 9.13,76.3 38.08,12.02 38.84,11.69 90.38,12.29l-72.8 11.68c20.78,9.36 49.69,2.34 72.28,16.73 -8.48,0.12 -41.14,-0.59 -47.28,0.79 -39.74,8.89 -20.53,-12.41 -24.2,18.45z"/>
   <path class="fil16" d="M13151.88 5407.47l-0.5 -196.55c-176.34,-9.98 -264.37,6.17 -411.62,-76.61 -229.27,-128.88 -265.59,-461.18 -6.94,-626.13 115.67,-73.78 262.55,-75.59 418.47,-79.21l-0.15 -199.44c-246.71,-10.31 -413.01,5.71 -580.75,125.12 -123.9,88.21 -239.67,243.78 -240.08,460.98 -0.82,438.83 374.88,613.57 821.57,591.83z"/>
   <path class="fil5" d="M8139.34 6453.62l1858.28 0.51c2.08,-1.33 5.64,-4.92 6.87,-2.8l45.52 -10.58c26.14,-6.75 5.61,3.17 17.79,-6.58 -3.47,-14.01 13.37,-13.59 -53.27,-19.65 38.64,-22.79 18.55,1.9 20.5,-100.57l-12.62 -6.23c-22.86,-18.42 -19.61,-10.75 -21.15,-34.43l-1932.3 0.95c-17.24,11.98 -40.42,8.35 -68.39,8.42l-62.29 6.12 24.47 18.95c7.11,0.95 24.76,0.15 33.61,0.29l0.21 89.02 -217.14 17.29 362.58 9.13c-14.41,-8.92 -53.04,-5.67 -77.28,-5.35 -79.56,1.06 -62.94,15.19 -66.71,28.48l141.31 7.02z"/>
   <path class="fil16" d="M3820.4 4391.09l-2.74 -163.5 -195.98 0.66 -3.63 1177.75 218.63 2.41c-5.64,-163.79 -15.98,-570.23 12.88,-710.82 59.37,-289.2 255.19,-268.48 442.59,-289.99l0.09 -201.08c-99.79,-2.72 -200.13,-0.29 -289.77,32.96 -107.9,40.03 -118.73,87.56 -182.07,151.62z"/>
   <path class="fil24" d="M5337.06 6453.81l1628.44 0.38 -37.68 -11.8c-8.4,-1 -27.18,-0.01 -36.67,-0.09 28.08,-14.95 17.31,1.69 46.45,-17.91l-46.33 -0.46 -10.07 -117.92c10.91,-14.1 11.45,22.13 9.97,-32.85l-1626.26 1.21 0.11 30.32 -34.79 14.41c17.61,10.36 19.5,-14.42 19.3,41.07 -0.21,56.74 -1.04,30.25 -19.99,40.67 64.96,7.12 24.49,-7.21 35.71,24.09 -19.88,16.32 -44.04,16.76 -71.21,13.79 38.4,0.29 93.16,-2.97 129.71,8.21l13.32 6.87z"/>
   <path class="fil25" d="M5947.24 2978.78c76.9,-36.53 167.01,-91.67 189.41,-173.36 91.37,-333.1 -585.59,-421.6 -679.93,-405.54 18.24,125.77 183.34,498.1 364.98,571.12 70.57,28.38 64.4,6.43 125.54,7.78z"/>
   <path class="fil26" d="M8117.47 52.71c-77.1,174.4 -44.35,430.97 -16.71,629.5 28.51,204.89 66.99,397 108.25,584.82 24.93,-26.35 64.92,-251.43 70.48,-280.72 43.01,-226.72 110.06,-649.43 55.82,-873.19 -9.5,-39.19 -9.04,-44.73 -35.26,-42.61l12.37 -20.78c-49.06,-50.64 -153.63,-61.82 -194.94,2.98z"/>
   <path class="fil27" d="M15210.13 43.02c-97.97,140.89 -53.91,440.41 -29.64,625.54 16.44,125.39 73.06,513.32 112.91,597.39 25.64,-24.45 103.27,-512.29 113.46,-586.09 20.48,-148.25 36.79,-337.19 22.03,-488.39l-23.98 -132.73c-37.42,-44.79 -148.13,-82.63 -194.79,-15.73z"/>
   <path class="fil28" d="M10136.63 45c-57.59,84.72 -55.57,185.21 -54.36,303.65 1.18,114.25 14.07,214.08 26.29,323.72 23.12,207.23 71.28,401.11 108.71,594.2 40.12,-42.09 113.66,-560.54 118.54,-599.1 13.2,-104.19 26.01,-223.05 27.99,-327.84 1.08,-56.86 0.57,-111.07 -8.43,-162.49l-25.56 -94.98c-0.72,-1.46 -2.15,-3.81 -2.86,-5.22l-14.51 -31.31c-39.44,-51.62 -138.9,-50.53 -175.81,-0.64z"/>
   <path class="fil25" d="M3620.36 2677.09c2.81,68.06 11.59,79.28 37.75,123.17 29.92,10.63 47.17,26.77 79.49,43.9 26.43,14.01 55.94,29.71 87.76,43.39 37.03,15.92 156.39,56.2 198.17,60.91 83.02,-11.44 170.48,-151.51 206.07,-210.25 28.12,-46.41 114.23,-242.3 117.78,-298.21 -173.1,29.91 -416.23,74.33 -580.46,139.94 -100.46,40.13 -88.29,49.54 -146.56,97.15z"/>
   <path class="fil29" d="M3345.77 6454.29l1542.85 -0.34c-28.1,-17.28 -104.12,-8.41 -145.17,-8.47l0.4 -139.66 -72.71 -10.21c27.92,-0.27 55.85,-0.52 83.73,-0.73 36.63,-0.28 62.29,9.21 60.37,-20.78l-1323.46 -1.02c-18.13,19.09 -2.81,8.83 -32.45,16.43l-83.38 2.18c-34.62,0.43 -68.94,1.46 -103.62,1.65 25.12,-15.81 268.32,-0.98 326.2,9.26l30.48 8.21c1.25,-2.14 4.81,1.68 6.88,3.12 -11.38,7.8 -0.81,3.66 -21.13,8.56 -18.84,4.54 4.45,0.24 -16.35,2.68 -8.24,0.96 -26.21,0.02 -35.54,0.12l0 70.1c11.96,0.11 32.93,-0.84 43.9,1.09l22.15 7.6c1.25,-2.1 4.68,2.01 6.67,3.53l-80.33 12.49c-12.77,4.56 6.71,1.68 -22.16,6.62 -26.18,4.47 -86.45,2.68 -116.06,3.22l-71.28 24.33z"/>
   <path class="fil30" d="M6965.49 6454.19l1173.85 -0.57 -141.31 -7.02c3.77,-13.28 -12.85,-27.42 66.71,-28.48 24.24,-0.32 62.88,-3.57 77.28,5.35l-362.58 -9.13 217.14 -17.29 -0.21 -89.02c-8.85,-0.14 -26.5,0.66 -33.61,-0.29l-24.47 -18.95 62.29 -6.12c27.98,-0.08 51.15,3.56 68.39,-8.42l-1177.8 -1.08c1.47,54.98 0.94,18.74 -9.97,32.85l10.07 117.92 46.33 0.46c-29.13,19.61 -18.36,2.96 -46.45,17.91 9.49,0.08 28.27,-0.92 36.67,0.09l37.68 11.8z"/>
   <path class="fil31" d="M18804.46 6453.4l720.04 0.4 -0.45 -179.44 -721.44 0.08c19.28,14.81 50.54,12.62 73.3,13.2 -11.2,25.46 1.52,16.04 -45.32,17.72 22.41,20.19 12.37,4.21 11.44,37.04 -0.57,20.11 -2.11,42.49 -2.8,63.18 32.68,1.19 41.63,-3.29 65.19,8.48l-101.01 4.36c18.77,6.13 52.94,2.98 74.02,15.83 -95.24,1.62 -68.42,-1.99 -72.97,19.16z"/>
   <path class="fil22" d="M4888.63 6453.95l448.43 -0.14 -13.32 -6.87c-36.55,-11.19 -91.31,-7.92 -129.71,-8.21 27.17,2.97 51.33,2.53 71.21,-13.79 -11.22,-31.3 29.25,-16.96 -35.71,-24.09 18.95,-10.42 19.78,16.07 19.99,-40.67 0.2,-55.49 -1.69,-30.72 -19.3,-41.07l34.79 -14.41 -0.11 -30.32 -449.65 -0.27c1.91,29.98 -23.75,20.49 -60.37,20.78 -27.88,0.21 -55.81,0.46 -83.73,0.73l72.71 10.21 -0.4 139.66c41.05,0.05 117.08,-8.82 145.17,8.47z"/>
   <path class="fil32" d="M17383.43 239.94c7.36,52.94 -5.4,66.48 28.43,112.74 20.92,28.6 46.15,49.33 79.28,68.33 44.55,25.54 161.25,71.51 225.61,65.55 -21.41,-82.91 -40.47,-152.71 -74.73,-226.51 -14.06,-30.28 -31.24,-66.01 -56.39,-90.62 -40.64,-39.75 -62.83,-35.61 -112.58,-37 -38,9.28 -80.45,61.18 -89.64,107.51z"/>
   <path class="fil33" d="M17982.89 6454.07l229.44 0.03c-8.84,-39.16 -15.65,-15.16 -72.4,-24.83l145.81 -22.34 -27.89 -19 0 -65.87c-17.26,-7.9 -30.14,-8.19 -46.51,-15.54l75.14 -1.44c-17.41,-36.94 11.38,-8.15 -38.19,-20.53l-29.82 -7.86c-1.11,-2.7 -4.5,-1.62 -6.29,-3.12l-373.43 -0.25c19.19,17.48 28.2,12.84 38.93,15.33 24.47,5.68 9.62,-7.34 33.73,10.16l-72.52 3.16 -0.75 106.36 74.17 2.22c-31.16,3.88 -48.89,0.63 -74.41,16.25l74.36 4.19c-10.8,0.02 -34.31,-1.11 -43.67,0.9 -27.46,5.89 -15.31,0.59 -31.47,14.54 40.1,-0.08 117.62,-9.25 145.78,7.65z"/>
   <path class="fil34" d="M13780.46 6454.64l581.57 -0.45 -1.77 -30.56 74.29 -4.38 -73.05 -1.71 -0.67 -113.92 72.86 -3.86 0.68 -26.61 -376.22 -0.13c12.33,58.42 -9.39,1.08 10.77,30.62 -2.69,-2.16 9.25,-12.41 -21.73,-4.7 -32.37,8.07 -11.78,-1.62 -31.89,20.04l71.38 3.11c-41.12,-28.31 -26.85,54.42 -26.85,91.93l72.24 -7.54c-38.1,0.04 -162.36,0.5 -192.66,8.96 -26.43,7.38 -17.72,7.86 -20.22,8.94 -48.38,20.66 -127.97,21.43 -138.75,30.26z"/>
   <path class="fil35" d="M10361.44 6453.4l371.66 0.09 -71.18 -7.64 33.72 -19.14c9.72,-3.89 24.59,-7.9 36.39,-10.56 25.92,-5.87 42.49,-6.35 74.21,-7.47 -28.85,10.76 -66.75,-1.93 -90.98,-7.53 0,-44.27 -4.12,-49.8 12.22,-86.14 10.37,-23.04 0.43,18.44 7.59,-15.47 -90.34,-1.63 -74.43,6.31 -72.67,-25.12l-298.17 -0.01 -3.18 36.74 27.24 -1.02 -0.45 105.11 44.83 0.45c-15.9,-20.84 -105.63,-3.68 -139.65,-2.37 19.7,18.21 29.73,15.06 67.83,16.92l0.57 23.17z"/>
   <path class="fil36" d="M9997.62 6454.13l363.82 -0.73 -0.57 -23.17c-38.1,-1.86 -48.14,1.29 -67.83,-16.92 34.02,-1.31 123.74,-18.47 139.65,2.37l-44.83 -0.45 0.45 -105.11 -27.24 1.02 3.18 -36.74 -362.97 -1.11c1.54,23.68 -1.71,16.01 21.15,34.43l12.62 6.23c-1.96,102.47 18.13,77.79 -20.5,100.57 66.64,6.06 49.8,5.64 53.27,19.65 -12.18,9.74 8.35,-0.17 -17.79,6.58l-45.52 10.58c-1.23,-2.12 -4.8,1.46 -6.87,2.8z"/>
   <path class="fil37" d="M18212.32 6454.1l365.86 0.24c11.92,-38.19 -26.3,-20.78 30.92,-27.53 -39.15,14.6 -31,-10.46 -31.83,-11.13l-0.91 -83.24c11.23,-9.54 -21.49,-19.62 33.78,-14.5l-106.34 -44.57 -291.63 0.19c1.79,1.51 5.18,0.43 6.29,3.12l29.82 7.86c49.57,12.38 20.78,-16.42 38.19,20.53l-75.14 1.44c16.37,7.35 29.25,7.65 46.51,15.54l0 65.87 27.89 19 -145.81 22.34c56.75,9.67 63.56,-14.33 72.4,24.83z"/>
   <path class="fil38" d="M14362.03 6454.19l299.5 -0.58c-0.37,-49.06 20.77,-37.22 70.6,-38.07 -21.28,-54.06 -8.82,43.91 -27.29,-63.79 -6.55,-38.23 9.81,-27.6 -45.88,-54.97l110.88 -7.11c-17.26,-2.88 -0.78,1.46 -17.11,-3.94 -25.04,-8.29 -5,3.1 -22.54,-12.1l-295.83 -0.48 -0.68 26.61 -72.86 3.86 0.67 113.92 73.05 1.71 -74.29 4.38 1.77 30.56z"/>
   <path class="fil39" d="M17687.44 6453.89l295.45 0.17c-28.16,-16.9 -105.68,-7.72 -145.78,-7.65 16.16,-13.95 4.01,-8.65 31.47,-14.54 9.36,-2.01 32.87,-0.87 43.67,-0.9l-74.36 -4.19c25.52,-15.62 43.25,-12.38 74.41,-16.25l-74.17 -2.22 0.75 -106.36 72.52 -3.16c-24.11,-17.5 -9.26,-4.48 -33.73,-10.16 -10.73,-2.49 -19.74,2.15 -38.93,-15.33l-151.25 0.35c-27.96,19.39 -170.74,11.83 -218.22,12.38 2.14,1.22 5.16,2.29 6.84,2.82 1.71,0.52 4.89,1.99 7.07,2.57l-86.4 15.47c34.34,14.57 102.05,8.66 146.56,9.42l-0.34 79.24c-8.08,0.11 -39.11,-0.55 -44.64,0.69 -28.22,6.24 -17.91,-4.98 -27.36,19.44 10.15,6.67 0.62,3.32 20.13,7.78l53.4 3.45c24.11,0.32 48.1,0.72 72.2,1.26 -16.65,4.53 -20.6,0.97 -35.03,3.6l-31.78 10.14c-1.44,-2.25 -5.16,2.26 -7.31,3.47l144.82 8.51z"/>
   <path class="fil40" d="M14661.53 6453.61l371.04 -0.01c3.67,-30.86 -15.54,-9.56 24.2,-18.45 6.14,-1.38 38.8,-0.67 47.28,-0.79 -22.59,-14.4 -51.5,-7.37 -72.28,-16.73l72.8 -11.68c-51.54,-0.6 -52.3,-0.27 -90.38,-12.29 0,-34.06 5.56,-55.4 -9.13,-76.3l62.72 -22.79c-26.6,-1.19 -105.46,8.53 -106.81,-20.11l-230.76 -0.84c17.53,15.21 -2.5,3.81 22.54,12.1 16.33,5.41 -0.15,1.06 17.11,3.94l-110.88 7.11c55.69,27.36 39.32,16.73 45.88,54.97 18.47,107.71 6.01,9.73 27.29,63.79 -49.83,0.85 -70.97,-10.99 -70.6,38.07z"/>
   <path class="fil41" d="M10733.1 6453.49l301.8 0.36 2.85 -40.83 -0.28 -4.65c-49.94,-38.99 -35.91,-63.23 -1.4,-97.13 -32.24,-3.05 -36.08,-12.54 -71.77,-10.3 65.61,-1.92 56.14,0.36 71.76,-23.93l-1.44 -2.63 -372.22 0.05c-1.76,31.44 -17.66,23.5 72.67,25.12 -7.17,33.91 2.77,-7.57 -7.59,15.47 -16.34,36.34 -12.22,41.87 -12.22,86.14 24.23,5.59 62.13,18.29 90.98,7.53 -31.72,1.13 -48.29,1.61 -74.21,7.47 -11.8,2.67 -26.66,6.67 -36.39,10.56l-33.72 19.14 71.18 7.64z"/>
   <path class="fil42" d="M18578.18 6454.34l226.28 -0.94c4.54,-21.15 -22.27,-17.54 72.97,-19.16 -21.08,-12.85 -55.25,-9.7 -74.02,-15.83l101.01 -4.36c-23.56,-11.76 -32.51,-7.29 -65.19,-8.48 0.69,-20.69 2.23,-43.07 2.8,-63.18 0.93,-32.84 10.98,-16.85 -11.44,-37.04 46.84,-1.68 34.12,7.74 45.32,-17.72 -22.75,-0.58 -54.02,1.62 -73.3,-13.2l-298.81 -1.06 106.34 44.57c-55.26,-5.12 -22.55,4.96 -33.78,14.5l0.91 83.24c0.83,0.67 -7.32,25.74 31.83,11.13 -57.23,6.75 -19.01,-10.66 -30.92,27.53z"/>
   <path class="fil43" d="M11034.9 6453.85l156.06 -0.09c-19.19,-43.62 20.96,-20.1 -44.9,-30.26 -2.72,-0.42 -48.99,1.47 -56.81,1.47l101.71 9.15c-28.99,-36.01 40.17,-21.67 -56.17,-30.32 -29.55,-2.65 -29.06,2.17 -36.34,11.83l92.51 0 -13.28 -107.24c-14.47,-14.93 -29.38,-12.9 -60.66,-12.9 5.16,16.94 37.13,27.23 73.92,-18.5l-154.88 0c-15.62,24.29 -6.15,22.01 -71.76,23.93 35.69,-2.24 39.53,7.25 71.77,10.3 -34.51,33.91 -48.54,58.15 1.4,97.13l0.28 4.65 -2.85 40.83z"/>
   <path class="fil44" d="M4022.62 2959.47l0.91 -11.01c-41.78,-4.71 -161.14,-44.99 -198.17,-60.91 -31.82,-13.68 -61.32,-29.37 -87.76,-43.39 -32.32,-17.13 -49.57,-33.27 -79.49,-43.9 56.17,148.78 182.26,242.35 364.52,159.21z"/>
  </g>
 </g>
</svg>
